<?xml version="1.0" encoding="UTF-8"?><svg id="beans" xmlns="http://www.w3.org/2000/svg" viewBox="0 0 500 500"><defs><style>.cls-1{fill:#fff;stroke-width:0px;}</style></defs><path class="cls-1" d="m212.74,272.91c11.07-14.22,15.17-32.97,12.75-52.65-2.84-22.98-14.5-47.18-34.34-67.14-19.83-19.96-43.95-31.79-66.91-34.78-45.26-5.89-76.51,28.37-37.73,55.37,12.3,8.56,29.72,15.86,47.42,23.28,15.51,6.5,31.24,13.09,44.56,20.94,22.98,13.54,38.61,30.3,34.25,54.99h0Zm10.7,180.59c14.7,10.42,33.62,13.67,53.17,10.35,22.83-3.87,46.47-16.63,65.52-37.34,19.05-20.71,29.77-45.34,31.72-68.42,3.84-45.48-31.81-75.15-57.02-35.18-8,12.67-14.5,30.41-21.11,48.42-5.79,15.79-11.66,31.8-18.9,45.47-12.49,23.57-28.52,39.94-53.39,36.7h0Zm116.99-162.22c-13.34-6.7-29.19-8.49-45.48-5.73-22.83,3.87-46.47,16.63-65.52,37.34-19.05,20.71-29.77,45.34-31.72,68.42-4.82,57.2,42.41,66.8,67.56,19.33,6.81-12.85,12.53-28.45,18.17-43.84,6.84-18.64,13.57-36.99,22.34-50.91,9.14-14.49,20.09-24.13,34.64-24.62h0Zm91.18-218.88c11.07,14.22,15.17,32.97,12.75,52.65-2.84,22.98-14.5,47.18-34.34,67.14-19.83,19.96-43.95,31.79-66.91,34.78-45.26,5.89-76.51-28.37-37.73-55.37,12.3-8.56,29.72-15.86,47.42-23.28,15.51-6.5,31.24-13.09,44.56-20.94,22.99-13.54,38.61-30.3,34.25-54.99h0Zm-156.76,124.21c-7.3-13.02-9.81-28.78-7.78-45.17,2.84-22.98,14.5-47.18,34.34-67.14,19.83-19.96,43.95-31.79,66.91-34.78,56.92-7.41,68.65,39.35,22.37,66.62-12.53,7.38-27.85,13.8-42.97,20.14-18.31,7.67-36.34,15.23-49.84,24.63-14.07,9.79-23.19,21.16-23.02,35.72h0Zm-218.87-47.91c-7.3,13.02-9.81,28.78-7.78,45.17,2.84,22.98,14.51,47.18,34.34,67.14,19.83,19.96,43.95,31.79,66.91,34.78,56.92,7.41,68.65-39.35,22.37-66.62-12.53-7.38-27.85-13.8-42.97-20.14-18.31-7.67-36.34-15.23-49.84-24.63-14.07-9.79-23.19-21.16-23.02-35.72h0Z"/></svg>