<?xml version="1.0" encoding="UTF-8"?><svg id="Layer_1" xmlns="http://www.w3.org/2000/svg" viewBox="0 0 500 500"><defs><style>.cls-1{fill-rule:evenodd;}.cls-1,.cls-2{fill:#fff;stroke-width:0px;}</style></defs><g id="Layer_1-2"><g id="Grün_-_0b1b13"><path class="cls-2" d="m370.79,345.07c-1.76-1.76-3.07-3.95-4.39-5.71-1.76-2.2-3.07-3.95-4.83-6.15-3.07-3.95-6.15-8.34-8.78-12.73-3.51-6.15-5.71-13.17-7.9-20.2-.88-3.51-2.2-7.03-3.07-10.1-.88-3.07-2.2-7.03-3.95-10.1-1.32-2.2-4.83-4.39-4.83-.44.44,10.54,5.27,20.64,9.22,29.86,2.63,6.59,5.71,13.17,9.66,19.32,2.2,3.51,5.27,6.59,8.34,9.66,1.32,1.32,3.07,3.07,4.39,4.39,1.32,1.32,2.63,3.07,4.83,3.95.44.44.88.44,1.76,0,0,0,0-1.32-.44-1.76"/><path class="cls-2" d="m133.66,230.89c25.47,0,50.5-.44,75.97-.44,3.07,0,6.15,0,8.78-1.32,3.51-1.76,7.47-5.71,2.63-8.34-4.39-2.63-10.1-3.07-15.37-3.51-8.78-.44-17.57-1.32-25.91-2.2-18.88-2.2-37.76-1.32-56.21,0h-.88c-2.2,0-4.83.44-7.03,1.32-3.51,1.32-7.03,4.83-7.03,8.78.44,2.2,13.61,1.76,18.88,3.51,2.2.88,4.83,1.76,6.15,2.2"/><path class="cls-2" d="m115.66,115.84c0,1.32-1.32,3.95-3.07,3.95-3.51,0-4.83-3.07-5.27-6.15,0-.88,0-2.2.44-3.07.88-1.32,2.2-1.76,3.51-2.2,3.07-1.32,5.71-.88,7.47,2.2,3.95,7.47,0,15.81-3.07,22.83-4.83,10.98-6.59,22.83-5.71,34.25.44,3.51.88,7.03,1.76,10.1.88,2.63,1.76,4.83,3.07,7.03,0,.44.44.44.88.88s1.32,0,1.32-.88c.44-.44,0-1.32,0-1.76-1.32-15.81-2.2-32.5,3.51-47.43,1.76-4.83,4.39-9.22,5.27-14.49.88-5.27-.44-10.54-3.07-14.93-1.32-1.76-2.63-3.51-4.39-4.39-1.76-.88-3.51-.88-5.71-.88-3.07.44-5.71,1.32-7.9,3.07-1.76,1.32-3.51,3.07-4.39,5.27-.88,2.2-.88,4.39-.44,6.59.44,3.51,2.2,7.47,5.27,9.22,3.07,2.2,7.47,2.2,10.54,0,2.63-2.2,3.07-7.47.44-9.66.44-.44-.44,0-.44.44"/><path class="cls-2" d="m151.67,174.68c-.44-1.76-.44-3.07-.88-4.83-.44-1.76-.88-3.51-1.32-5.71-.88-3.95-.88-7.9-1.32-11.42-.44-7.9.44-15.81,2.63-23.27,2.63-10.98,7.9-21.08,10.1-32.06,1.76-8.78,1.32-17.57-.88-25.91-1.32-4.83-3.51-9.66-7.47-12.3-.44-.44-.88-.88-1.76-.88-1.76,0-2.63,1.76-2.63,3.51s1.32,3.07,2.2,4.39c4.39,7.03,5.71,16.25,4.83,24.59-.88,8.34-3.95,16.69-6.59,24.59-2.63,7.9-5.71,16.25-6.59,24.59-.88,6.59-.44,13.17.88,19.32.44,3.07,1.32,6.15,2.63,9.22.88,3.07,2.63,5.27,3.95,7.9.44.88,2.63,0,2.2-1.76"/><path class="cls-2" d="m181.09,99.59c.88-2.63,2.2-4.83,2.63-7.03.44-2.63,0-5.27-.44-7.9-.88-3.51-2.2-7.47-3.07-10.98-.88-3.51-1.32-7.47,0-10.98,1.32-3.51,4.39-6.59,8.34-6.59,1.76,0,3.07.44,4.39,1.32,1.32.88,1.76,2.63,1.76,3.95-.44,1.32-1.76,2.63-3.07,3.07-1.32,0-2.63-.44-3.51-.44-1.76.44-2.63,3.07-1.76,4.39.88,1.76,3.07,2.63,4.83,2.63,3.95,0,7.9-2.63,9.22-6.59,1.32-3.95,0-8.34-2.63-11.42-3.07-3.07-7.03-3.95-11.42-3.51-3.95.44-7.9,3.07-10.1,6.59-2.2,3.51-3.51,7.47-3.51,11.42,0,9.66,5.71,18.44,5.27,27.67,0,.88-.44,2.2,0,3.07,0,.88.88,1.76,1.32,2.2.44.44,1.76,0,1.76-.88"/><path class="cls-2" d="m185.04,184.35c2.2-1.32,3.07-5.27,3.51-7.47.88-3.07,1.76-6.59,2.2-10.1.88-6.59.88-13.61-.88-20.2-1.32-5.27-3.07-10.54-3.95-15.81-.44-3.51-.44-6.59,0-10.1.44-2.63,2.2-5.71,3.95-7.9,1.76-2.2,3.95-3.95,7.03-4.83,3.07-.88,6.15.44,7.47,2.63.88,1.32,1.32,2.63,1.32,3.95s-.44,2.63-1.76,3.51c-1.32.88-3.07.44-4.39.44s-2.63,0-3.51,1.32c-2.2,2.63,2.2,5.27,3.95,5.27,3.07.44,6.15,0,8.34-2.2,3.51-2.63,4.39-7.47,3.51-11.42-.88-3.95-4.83-7.47-8.78-8.78-3.95-1.32-8.78-.88-12.3,1.32-6.59,3.51-10.98,11.42-11.42,18.88-.44,8.34,2.2,16.25,3.95,24.15,2.2,10.98,1.76,22.4-1.32,33.37-.44.88-.44,1.76-.44,3.07,1.32,1.32,2.2,1.76,3.51.88"/><path class="cls-2" d="m214.9,138.68c-.88.44-.88,1.32-1.32,2.2-.44,1.32-.88,2.2-1.32,3.51-.44,2.2-.88,4.83-1.32,7.03-.44,3.95,0,7.47.88,11.42.88,3.07,2.2,6.59,3.07,9.66.88,3.07,1.32,6.59,0,10.1-.44.88-.44,1.32-.88,2.2-.44.88,0,1.76.88,1.76.88.44,2.2-.44,2.63-1.32,2.63-3.51,3.51-7.9,3.07-12.3-.44-4.39-1.76-8.34-2.63-12.73-.88-5.27-1.32-10.54-1.32-15.81,0-.88.44-2.2,0-3.07,0-.88,0-1.76-.44-2.2.44-.88-.88-.88-1.32-.44"/><path class="cls-2" d="m206.56,81.59c-.88,2.2-2.2,4.39-1.76,6.59,0,.88.44,2.2,1.32,2.2.88.44,1.76,0,2.2-.44s.88-1.32.88-2.2c.44-1.32,1.32-5.27-.44-5.71-.44-1.32-1.76-1.32-2.2-.44"/><path class="cls-2" d="m132.35,82.47c-.44,2.2-.88,4.39-.88,6.59s.88,4.39,1.32,6.15c.44,2.2,0,4.39,0,6.15,0,1.32,0,3.95,2.2,3.95s3.07-2.2,3.51-3.95c.88-2.2.44-4.39.44-6.59,0-4.39-2.63-8.34-3.51-12.73-.44-1.32-3.07-1.32-3.07.44"/><path class="cls-2" d="m340.93,148.78c.44-.88-.44-2.2-.44-3.07-.44-1.32-.88-3.07-1.32-4.39-1.32-5.71-2.2-11.86-1.32-17.57,0-.88.44-1.76.44-3.07s-.44-1.76-1.32-2.63c-1.32-.88-3.07,0-3.95.88-.88,1.32-1.32,2.63-1.32,3.95-.44,2.63-.44,5.27,0,7.9.44,2.63,1.76,5.27,1.76,7.9-4.39-3.51-9.66-6.15-14.93-7.03-1.76-.44-3.51-.44-4.83.44-1.76.88-2.63,2.63-2.2,3.95.44,1.32,1.76,1.76,2.63,2.2,1.32.44,2.63,0,3.51,0,3.07,0,6.15,1.32,9.22,2.63,3.07,1.76,5.71,3.51,8.34,5.71,1.76.88,3.95,4.83,5.71,2.2h0Z"/><path class="cls-2" d="m300.53,158.44c-1.76-4.39-3.95-8.78-7.9-11.42-4.39-3.07-10.1-3.51-15.37-3.51s-10.1.88-14.93,3.07c-2.63,1.32-5.27,3.07-7.03,5.27-1.76,1.76-4.83,5.71-2.2,7.9.88.88,2.2,1.32,3.07,1.76,5.27,1.76,10.54,3.07,16.25,3.51,5.71.44,11.42,0,16.25-2.63,1.76-.88,3.95-2.63,6.15-2.2,1.76.44,3.51,2.63,4.39,4.39.44.44.44,1.32,1.32,1.76.88.44,1.32.88,2.2.44.88-.44.44-1.76,0-2.63-.44-1.32-1.32-3.51-2.2-5.71Zm-12.73-.44c-.88.44-2.2.88-3.07.88-3.07.88-6.15,1.76-9.22,1.76s-6.15,0-9.22-.44c-1.76-.44-3.07-.88-4.83-1.32-.88-.44-4.39-1.32-4.39-2.2s3.07-3.07,3.51-3.51c1.32-.88,2.63-1.76,4.39-2.63,6.15-3.07,13.17-3.95,19.76-2.2,1.76.44,7.9,1.76,7.9,3.95,0,1.32-1.76,0-2.63,0-1.32-.44-2.2-.44-3.51-.88-2.63-.44-4.83-.44-7.47.44-.88,0-1.76.44-1.76,1.32s.88,1.32,1.76,1.32c1.32,0,2.63.44,3.95.88.88,0,3.07.44,3.95.88,2.2.88,1.76,1.32.88,1.76Z"/><path class="cls-2" d="m305.8,68.86c-.44-.44-1.32-.88-2.2-.88-3.95-.44-7.9.44-10.98,2.63.44-.88.44-1.76.44-3.07,0-.88,0-2.2-.88-2.63-.44-.88-1.76-1.32-2.63-.88-1.32.44-1.76,1.76-1.32,2.63.44,2.63,0,5.71-1.76,7.9q-.44.44-.44.88v1.32c0,.44.44.44.88.44s.88,0,.88-.44c2.63-.88,5.27-2.63,7.9-3.51,1.76-.44,3.95-.88,5.71-.88.88,0,2.2,0,3.07-.44.88-.44,1.76-1.32,1.32-3.07.44.44,0,0,0,0Z"/><path class="cls-2" d="m228.95,111.01c4.83,0,4.83-7.47,0-7.47s-4.83,7.47,0,7.47"/><path class="cls-2" d="m226.32,132.97c1.76,0,1.76-3.07,0-3.07s-1.76,3.07,0,3.07"/><path class="cls-2" d="m75.26,240.99c-.44,2.2-.44,3.95-.44,6.15-.44,2.2-.44,4.39-.88,7.03-.44,4.39-.44,9.22,0,13.61.44,4.83,1.32,9.66,2.2,14.49.44.88.44,2.2,1.32,3.07.88.88,1.76,1.32,3.07.88.88-.44.88-.88,1.32-1.76v-2.2c-.44-9.66-1.32-19.32-1.76-28.98,0-2.2-.44-4.83-.44-7.03s-.44-6.15-3.51-5.71"/><path class="cls-2" d="m84.48,306.42c2.2,0,3.95-1.76,3.95-3.95s-1.76-3.95-3.95-3.95-3.95,1.76-3.95,3.95,1.76,3.95,3.95,3.95"/><path class="cls-2" d="m206.12,427.18c-.44-1.32-2.2-3.95-2.63-4.83-.88-2.2-2.2-4.39-3.07-6.59-3.51-7.47-7.03-14.49-11.42-21.08-2.2-3.51-4.83-6.59-7.9-9.22-2.63-2.2-6.15-4.83-4.39-9.22,1.32-3.07,6.15-3.07,8.78-3.95,2.63-.88,5.27-1.76,7.9-2.63,2.2-.44,5.71-.44,7.47-2.2.44-.44.88-1.76,0-2.2-.88-.44-1.76-.44-2.63,0-3.07.88-5.71,1.76-8.78,2.2-2.63.88-5.71,1.32-8.34,1.76-4.83.88-10.1.44-14.93,0-10.98-1.32-21.52-4.83-31.18-10.1-14.05-7.9-26.35-18-39.08-28.1-.88-.88-2.63-1.76-3.51-.88-.88.88-.44,2.2,0,3.51,2.2,6.15,4.83,11.86,8.34,17.57,1.76,2.63,3.95,5.27,6.15,7.47,2.2,2.2,4.83,3.95,6.59,6.59,4.83,3.95,9.66,7.47,14.93,10.54,2.2,1.32,4.83,2.63,7.47,3.51,2.2.88,4.83.88,7.03,1.32,6.15.88,12.73,0,18.88-2.2,0,1.32-3.07,3.95-3.95,4.83-1.32,1.76-2.63,3.07-3.95,4.83-2.63,3.51-4.83,7.03-6.59,10.98-.44.88-.44,1.76,0,2.2.44.44,1.32-.44,1.76-.88,2.2-3.07,4.39-5.71,7.03-8.34,1.32-1.32,2.63-3.07,3.95-4.83,1.76-2.2,3.95-5.71,6.59-7.03.44-.44.88-.44,1.32-.44,2.2-.44.88,1.76.88,3.07-.88,3.51-1.32,7.03-1.32,10.98,0,7.47,2.63,14.49,7.03,20.64,3.95,5.27,9.22,9.66,15.37,12.3,3.07,1.32,6.15,2.2,9.66,2.63,1.32,0,6.59,1.32,7.03-.44q-.44-1.32-.44-1.76Zm-48.74-50.94c-7.03,1.32-14.49.88-20.64-.88-8.34-2.63-15.81-7.47-22.4-13.17-6.59-5.71-15.37-13.17-16.25-22.4,4.39,4.39,10.1,7.9,14.93,11.42,5.27,3.95,10.98,7.47,16.69,10.98,5.27,3.07,10.98,5.71,17.13,7.9,3.07.88,6.15,1.76,9.22,2.63,2.63.44,6.15,0,8.78,1.32-2.2.88-4.83,1.76-7.47,2.2Zm40.84,50.06c-7.9-2.2-15.37-7.47-20.2-14.49-2.63-3.51-4.39-7.47-5.27-11.42-.88-3.51-2.63-9.66-.88-13.17,1.76-4.39,7.03,3.95,8.34,5.27,3.07,3.51,5.27,7.47,7.9,11.42,4.83,7.47,7.9,15.81,13.17,23.27-1.32-.44-2.2-.44-3.07-.88Z"/><path class="cls-2" d="m178.45,363.07c1.76,0,3.51-1.76,3.51-3.51s-1.76-3.51-3.51-3.51-3.51,1.76-3.51,3.51,1.32,3.51,3.51,3.51"/><path class="cls-2" d="m312.83,415.33c-.44-.88-1.32-.88-2.2-.88-11.42-1.32-22.4-4.83-32.5-9.66-7.47-3.51-14.49-8.78-21.08-13.61-6.59-4.83-11.86-11.42-15.37-18.44-4.83-9.66-6.59-20.64-5.27-31.18-1.76,0-2.63,1.76-3.07,3.51-1.76,8.78,0,16.25,1.32,24.59-2.2-1.32-4.83-3.07-7.03-4.39-.44-.44-.88-.44-1.32-.44s-.88,0-1.32.44c-.44.88.44,1.32.88,1.76,2.2,1.76,4.83,3.51,7.03,5.71.88.88,4.83,4.83,4.83,5.71.44.44,1.32,1.32.88,2.2-.44.88-1.76.44-2.63,0-6.15-2.63-11.42-3.95-18-4.83-8.78-.88-18,.44-26.35,3.95,6.15,8.78,15.81,15.37,26.35,18,6.59,1.76,13.61,1.76,20.2.88,5.27-.44,12.3-3.51,17.13-.88,3.07,1.32,5.71,3.95,8.34,5.71-7.03,1.76-13.61,2.2-18.88,7.47-4.83,4.39-7.9,11.42-6.15,18,1.32,4.83,4.83,8.78,9.22,10.54,4.39,1.76,9.66,1.76,14.05-.88,3.95-2.2,6.59-6.59,7.03-10.98.44-4.39-2.2-9.22-6.59-10.98-3.95-1.76-9.66,0-11.86,3.95-.88,1.76-1.32,3.51-.44,5.27.88,1.76,2.63,2.63,4.39,2.2,1.76-.44,2.63-2.63,1.76-3.95,1.32-.44,2.63,0,3.51.88.88.88,1.32,2.2,1.32,3.51,0,3.95-3.51,7.03-7.47,7.47-3.95,0-7.47-2.2-8.78-5.71-1.32-3.51-.88-7.9.88-10.98s5.27-5.71,8.78-7.03c3.51-1.32,7.47-1.76,10.98-2.2,4.39,0,8.78.44,12.73,1.32,3.07.88,10.1,2.2,11.86,4.83-5.27,3.07-9.22,7.03-10.98,13.17-.44.88-.44,1.76.44,2.2.88.44,2.2-.88,2.63-1.76,2.2-4.39,5.71-7.9,10.54-10.1,4.39-2.2,9.66-2.63,14.49-1.32,1.32.44,2.2.88,3.51.44,1.76-.88,2.63-2.2,2.2-3.51Zm-70.7-22.83c-3.51.44-7.03.88-10.54,1.32-6.59.88-12.73,0-18.88-2.63-3.07-1.32-6.15-2.63-8.78-4.83-2.63-1.76-5.27-3.51-7.47-5.71,17.13-5.27,38.64,0,52.7,10.54-2.63.44-4.83.88-7.03,1.32Z"/><path class="cls-2" d="m217.1,357.36v-1.32q0-.44-.44-.88c-.44-.44-1.32-.88-2.2-.44-.88,0-1.32.88-1.76,1.76,0,.88,0,1.76.44,2.2s1.32.88,2.2.44c.44,0,.88-.44.88-.44,0,0,.88-.88.88-1.32"/><path class="cls-2" d="m254.42,381.51c2.63,0,2.63-4.39,0-4.39s-2.63,4.39,0,4.39"/><path class="cls-2" d="m217.54,419.28c3.51,0,3.51-5.27,0-5.27-3.07,0-3.07,5.27,0,5.27"/><path class="cls-2" d="m315.02,405.67c2.2,0,2.2-3.51,0-3.51-2.2-.44-2.2,3.51,0,3.51"/><path class="cls-2" d="m250.03,202.79c2.2,0,3.51-1.76,3.51-3.51,0-2.2-1.76-3.51-3.51-3.51s-3.51,1.76-3.51,3.51c0,1.76,1.76,3.51,3.51,3.51"/><path class="cls-2" d="m271.11,226.5c3.07,0,3.07-4.83,0-4.83s-3.51,4.83,0,4.83"/><path class="cls-2" d="m437.54,223.87c2.63,0,2.63-4.39,0-4.39s-3.07,4.39,0,4.39"/><path class="cls-2" d="m403.73,229.14c-.44-.44-.44-.88-.88-.88-.44-.44-.88-.44-1.32-.88-1.76-.88-3.95,0-4.83,1.76-.88,1.32-.44,3.07.44,4.39.88,1.32,2.63,1.76,4.39,1.32,2.2-.88,3.51-3.51,2.2-5.71"/><path class="cls-2" d="m355.86,97.4c2.63,0,2.63-4.39,0-4.39s-2.63,4.39,0,4.39"/><path class="cls-2" d="m301.41,121.55c5.27,0,5.27-8.34,0-8.34s-5.27,8.34,0,8.34"/><path class="cls-2" d="m253.11,449.14c-26.79,0-52.7-5.27-77.29-15.81-23.71-10.1-44.79-24.15-63.23-42.6-18.44-18.44-32.5-39.52-42.6-63.23-10.54-24.59-15.81-50.5-15.81-77.29,0-21.96,3.51-43.47,10.54-63.67,4.39-12.3,9.66-23.71,15.81-35.13,2.2-3.95,4.83-7.9,7.47-11.86,1.32-1.76,2.63-3.95,3.95-5.71.88-1.32,2.2-3.95,4.39-3.51,1.32,0,2.2,1.32,2.2,2.63,0,.88,0,1.76-.44,2.2-.88,1.32-1.76,2.2-2.63,3.51-.88,1.32-1.76,2.63-2.63,3.95-1.76,2.63-3.51,5.27-4.83,7.9-3.07,5.27-6.15,10.54-8.78,15.81-5.27,10.98-9.66,22.4-12.73,33.81-3.07,11.86-5.27,23.71-6.15,36.01-.44,4.39-.44,9.22-.44,14.05,0,106.71,86.51,193.22,193.22,193.22s193.22-86.51,193.22-193.22S359.81,57,253.11,57c-6.59,0-12.73.44-19.32.88-3.07.44-6.15.88-9.66,1.32-1.76.44-3.51.44-5.27.88-1.76.44-3.51.88-5.71.44-.88,0-1.76-.44-2.63-1.32-.44-.88-.44-2.2.44-3.07,1.32-1.32,3.07-1.32,4.39-1.76,1.76-.44,3.51-.44,5.27-.88,3.51-.44,7.03-.88,10.1-1.32,7.03-.88,13.61-1.32,20.64-1.32h.44c26.79,0,52.7,5.27,77.29,15.81,23.71,10.1,44.79,24.15,63.23,42.6,18.44,18.44,32.5,39.52,42.6,63.23,10.54,24.59,15.81,50.5,15.81,77.29s-5.27,52.7-15.81,77.29c-10.1,23.71-24.15,44.79-42.6,63.23-18.44,18.44-39.52,32.5-63.23,42.6-22.83,10.98-49.18,16.25-75.97,16.25"/><path class="cls-2" d="m340.05,83.79c-.44-.44-1.32-.88-1.76-.88-10.54-4.83-23.27-5.71-34.69-2.2-11.42,3.51-21.08,10.98-27.23,21.08-3.07,4.83-4.83,10.1-8.78,14.05-2.2,2.2-4.83,4.39-7.47,6.15-2.63,2.2-4.83,4.83-7.9,6.59.88-3.07.44-6.59.88-10.1,1.32-9.66,5.71-18,10.98-25.91,2.2-3.07,3.95-6.15,6.15-9.22.88-1.32,2.2-2.63,3.95-3.51,2.2-.88,3.95-1.32,6.15-3.51,1.76-1.76,2.63-4.83,1.76-7.03-.88-2.2-3.51-3.51-5.71-3.51-2.63,0-4.83,1.76-5.71,3.95-.44,1.32-.88,2.63-.88,3.95,0,.88.44,2.63.44,3.51,0,1.76-1.32,3.07-2.2,4.39-1.32,1.76-2.2,3.07-3.51,4.83-.88,1.32-2.2,3.07-3.07,4.83,0-5.27-1.32-10.54-2.63-15.81-.44-1.32-.44-2.2-.44-3.51s.44-2.63.88-3.95c.44-1.76-.44-3.51-1.76-4.83-2.2-2.2-5.71-2.63-7.9-.44-1.32.88-2.2,2.63-2.2,4.39s0,3.51,1.76,4.39c.88.88,2.2,1.32,3.07,1.76,1.76.88,3.07,2.2,3.95,3.95,1.32,2.2,1.32,4.83,1.32,7.03,0,.88.44,5.71-.88,11.42-.44,1.76-2.2,9.66-4.39,9.66-1.76,0-3.07-8.78-3.51-10.54-1.76-4.39-4.39-8.78-7.47-12.3-5.71-6.59-13.61-10.98-21.96-13.17-1.76-.44-4.83-.88-6.15.88-.88,1.76,0,4.83.44,6.59,2.2,12.3,10.54,23.27,21.52,28.1,3.95,1.76,8.34,3.07,10.54,6.59,1.76,3.51.88,7.03.44,10.54-.44,3.51-.44,7.03-1.32,10.54-1.76,6.59-5.27,12.73-7.9,18.88-2.2,5.71-4.39,12.3-3.07,18.44,0,.88.88,1.76,1.32,1.76s.88-.88.88-1.32c2.2-6.15,3.51-12.3,6.15-18.44,2.2-5.27,5.71-10.1,9.22-14.05,7.03-9.22,16.69-17.57,27.67-22.4,8.34-3.51,16.69-6.59,25.03-9.66,5.71-2.2,11.42-3.95,17.13-6.59,5.71-2.63,10.98-6.59,16.25-9.66,1.76-.88,3.51-2.2,3.07-3.95.88-.44.44-1.32-.44-1.76Zm-66.31-11.42h0c1.32-1.32,3.07-2.63,4.83-1.76,1.76,1.32.88,4.39-.44,5.27-.44.44-1.32.88-2.2,1.32-.88.44-1.76,0-2.2-.44-1.32-.88-.88-3.07,0-4.39Zm-18-1.76c0,.44-.44.44-.88.44-.44.44-1.32,0-1.76,0-2.2-.88-3.07-3.07-1.76-5.27.88-1.32,2.63-.88,3.95-.44,1.76.88,1.76,2.63.88,4.39,0,.44-.44.44-.44.88Zm-12.3,32.06c-2.2-.88-4.83-2.63-6.59-3.95-2.63-1.76-5.27-3.51-7.9-5.71-4.83-4.39-8.34-10.1-8.78-16.69,0,0,7.47,3.07,8.34,3.51,2.63,1.76,5.27,3.95,7.47,6.15,3.95,3.95,8.34,10.54,8.78,16.69-.44.44-.88.44-1.32,0Zm90.02-14.93h0c-.44-.44-5.27,2.63-6.15,3.07-2.2.88-4.39,2.2-6.59,3.07-4.39,2.2-9.22,4.39-14.05,6.15-4.39,1.76-9.22,3.51-13.61,5.27-2.2.88-4.83,1.76-7.03,2.63-1.76.44-5.27,2.2-7.03,2.2.44-2.2,3.07-4.39,3.95-6.59,1.32-2.2,2.63-4.39,4.83-6.59,3.95-4.39,8.78-7.47,14.05-9.66,10.1-3.95,21.52-3.51,31.62.44Z"/><path class="cls-2" d="m432.27,247.58c-1.32-5.71-3.07-11.42-5.27-16.69-1.76-4.39-3.07-8.78-4.39-13.17-.88-4.83-1.32-9.22-1.32-14.49,0-2.63-.44-5.71-.88-8.78-.44-3.95-.88-8.34-2.2-12.3-.88-3.95-2.2-7.9-3.51-11.86-3.07-8.78-7.47-17.57-12.3-25.47-3.95-6.59-9.22-12.3-15.81-17.13-7.03-4.83-14.05-10.54-21.08-14.93-5.71-3.51-11.42-6.59-17.57-9.66-3.07-1.32-6.15-3.07-9.22-3.95-2.63-.88-3.51,2.2-3.07,4.39,0,1.32.88,2.63,1.32,3.51,3.95,7.47,9.22,14.49,14.93,20.64,6.15,6.59,13.17,12.73,19.76,18.88,6.15,5.27,11.42,11.42,16.69,17.57,10.54,13.17,19.32,28.1,25.03,43.91,1.32,3.07,3.07,6.59,3.95,10.1-1.76-.88-3.07-2.63-4.39-3.51-1.32-1.32-3.07-2.63-4.39-3.95-2.63-2.63-5.71-4.83-7.9-7.9-2.2-2.63-3.95-5.27-5.27-8.34-.88-1.32-1.32-3.07-2.2-4.39-.44-1.32-.44-2.63-1.32-3.51-.44-.88-1.76-1.32-2.63-.44-2.63,2.2,2.2,9.22,2.63,11.42q.44,1.32-1.32,1.32c-1.32,0-3.07-.44-4.39-1.32-2.63-.88-5.27-2.63-7.9-4.39-4.39-3.51-7.47-8.34-9.66-13.17-1.32-2.63-3.07-6.15-3.07-9.22s2.63-4.83,1.32-8.34c-.88-2.63-3.51-4.39-6.15-4.39s-5.27,2.2-6.15,4.39c-.88,2.2.44,5.71,2.63,7.03,1.76.88,3.51,1.32,5.27,2.63.88.88,1.32,1.76,1.76,2.63,1.32,3.07,2.63,6.15,3.95,8.78.88,2.63,3.51,6.15,3.51,8.78-4.83-.88-10.1-4.39-14.49-6.59-4.83-2.63-9.22-6.15-13.17-9.66-1.32-1.32-2.63-2.2-3.07-3.95-.88-2.2,0-3.07,0-5.27,0-1.76-1.76-3.95-3.07-4.83-3.07-1.76-7.47-1.32-9.66,1.32-2.2,2.63-2.2,7.03,0,9.66,3.07,3.95,8.34,1.32,12.3,3.51,2.2,1.32,4.39,3.07,6.15,5.27,4.83,4.39,9.66,7.9,15.37,11.42,2.63,1.76,5.71,3.07,8.78,3.95,2.2.88,7.47,1.76,8.78,3.51-1.32,1.32-5.71,1.32-7.47,1.32-2.63,0-5.71,0-8.34.44-1.76,0-3.51.44-4.83,0-1.32-.44-2.63-1.32-3.95-2.2-1.32-.88-2.63-1.76-4.39-1.76-5.27-.44-7.03,7.03-4.39,10.54,1.76,2.2,4.83,3.07,7.47,2.2,2.2-.88,3.95-3.07,6.15-4.39,2.2-1.32,5.27-1.76,7.9-1.76,5.71-.44,10.98-.88,16.69-.44,11.86,1.32,22.83,9.22,29.86,18.44,3.95,4.83,7.03,10.54,9.66,16.69,3.07,8.34,5.27,16.69,7.03,25.47,0,.88.44,1.32.88,2.2.44.44,1.32,1.32,1.76.88.88,0,1.32-.88,1.76-1.76.44-.88,0-1.76,0-2.2-.88-6.59-1.76-11.86-3.07-16.69Zm-69.82-80.36c-.44.44-.88.44-1.32.88-1.32-.44-3.07-.88-3.51-2.2-.88-2.2,1.32-3.95,3.07-4.39,2.63-.44,3.51.44,3.51,3.07,0,1.32-1.32,1.76-1.76,2.63Zm-25.03,1.76c-1.32,2.63-3.95,3.95-5.71.44-.44-.88-.88-2.2-.44-3.51.44-1.76,2.63-2.63,4.39-2.2,2.63.44,2.63,3.07,1.76,5.27Zm17.13,36.45c-.88,1.76-3.07,2.2-4.39,1.32-2.2-1.32-1.32-7.47,1.76-6.59,1.76.88,3.95,3.07,2.63,5.27Zm2.2-3.51h0Zm57.96-4.83c-3.95-7.03-7.9-13.61-11.42-20.64-11.42-20.2-29.86-34.25-45.67-50.94-6.15-6.15-11.86-13.17-16.25-20.64,16.69,9.22,34.69,17.57,47.86,32.06,7.9,7.9,13.61,18,18,28.1,2.2,4.83,4.39,10.1,5.27,14.93,1.32,6.59,2.63,12.73,3.51,19.32,0-.44-.88-1.32-1.32-2.2Z"/><path class="cls-2" d="m102.05,183.91c-2.2-6.15-3.95-12.73-4.39-19.32v-3.95c0-1.32-.44-2.63-.88-3.51-.44-.44-.88-.88-1.76-.88-.44,0-.88,0-1.32.44-.88.44-1.32.88-2.2,1.76-.44.88-1.32,1.76-1.76,2.63-.44.88-.44,1.76-.44,2.63,0,1.76,0,3.95.88,5.71.88,2.63,1.76,5.71,3.51,7.9,0,.44.44.88.44,1.32s.44.88.44,1.76c0,1.32,0,2.2-.88,3.07-.88.88-3.51.88-4.83,1.32-1.76.44-3.07.88-4.39,1.76-3.07,1.32-5.71,3.51-7.9,5.71-4.39,4.39-7.47,10.54-6.59,16.69.44,2.63,1.76,5.71,3.51,7.9,9.22,9.66,26.35-9.66,12.3-12.73-1.32-.44-2.2,0-2.2,1.32v1.76c0,.88.44,1.32.44,2.2,0,1.32-1.32,2.63-2.63,3.07-1.32.44-2.63-.44-3.51-1.76-2.2-3.51-.88-7.47.88-10.54,1.76-3.51,5.27-5.71,8.78-7.47,3.95-2.2,8.78-4.83,13.17-5.71.88-.88,1.76-1.76,1.32-3.07Z"/><path class="cls-2" d="m239.49,266.46c-1.32.88-1.32,2.63-1.76,3.95-.44,1.76,0,3.07,0,4.83s3.07,1.76,3.07,0c0-1.32,0-3.07.44-4.39.44-1.32.44-2.63,0-3.95-.44-.88-1.32-.44-1.76-.44Z"/><path class="cls-2" d="m272.43,289.3c2.63,0,2.2-2.63,2.2-4.39,0-2.63,0-5.71.44-8.78-.44-2.2-3.07-3.07-3.95-.88-1.32,3.51-2.63,8.78-.88,12.3.44.88.88,1.76,2.2,1.76Z"/><path class="cls-2" d="m275.5,285.34c.44.88,1.76.88,2.2,0,.88-1.32.44-3.07.44-4.39-.44-1.76-3.07-1.76-3.07,0,0,1.32-.44,3.07.44,4.39Z"/><path class="cls-2" d="m291.75,326.62c0-2.2.44-4.39.88-6.59.44-1.76,1.32-3.95.44-5.71,0-.44-.44-.44-.88-.44-5.27.44-3.51,9.66-3.51,13.17.44,1.76,3.07,1.76,3.07-.44Z"/><path class="cls-2" d="m297.02,325.31v-4.39c0-1.32.44-2.63,0-3.51-.44-.44-.88-.88-1.32-.44-2.2,1.76-1.32,6.15-1.32,8.34,0,1.76,2.63,1.76,2.63,0Z"/><path class="cls-2" d="m302.73,353.41c0-2.63.44-5.71,0-8.34,0-.44-.44-1.32-.88-1.76-.44,0-.44-.44-.88-.44-.88,0-1.76.44-1.76,1.32-.88,3.07-.44,6.15,0,9.22.44,2.63,3.51,2.2,3.51,0Z"/><path class="cls-2" d="m307.12,354.73c0-2.2.88-6.15-.88-8.34-.44-.44-1.32-.44-1.32,0-1.76,1.76-.88,5.71-.88,8.34.44,1.76,3.07,1.76,3.07,0Z"/><path class="cls-2" d="m298.34,369.22c-1.32,2.63-.88,5.71-.88,8.78.44,1.32,3.07,1.32,3.07-.44,0-3.07,0-5.71-.88-8.34,0-.44-1.32-.88-1.32,0Z"/><path class="cls-2" d="m303.17,368.78c-1.32,2.63-1.32,5.71-1.32,8.78.44,1.76,3.07,1.76,3.07,0,0-2.63.88-5.71,0-8.34,0-.88-1.32-.88-1.76-.44Z"/><path class="cls-2" d="m446.16,292.6c-15.25-5.73-24.48-13.44-30.14-19.55-8.9-9.61-11.32-13.51-21.96-28.98-4.83-7.03-11.86-12.3-19.32-16.25-7.03-3.95-14.05-6.59-21.52-9.22-7.47-2.63-14.49-5.71-21.96-7.9-7.03-2.2-12.73-6.59-18.44-10.98-6.59-5.71-13.17-11.42-21.08-14.93-3.51-1.32-7.9-2.2-10.98,0-2.63,1.76-3.95,4.39-4.39,7.47-.88,7.03,1.32,14.05,4.39,20.2,1.32,2.63,3.07,4.83,4.39,7.47,1.76,2.63,3.51,5.27,5.27,7.47,1.76,2.63,3.95,4.83,6.15,7.03,2.2,2.2,4.39,3.95,6.15,6.15.88.88,1.76,1.76,2.63,2.63-5.71,1.32-12.73,0-18.88,0-3.95,0-7.9-.44-11.86-.44-3.51,0-6.59.44-9.22-1.76-2.2-1.76-3.51-4.39-5.27-6.59-4.39-5.71-10.98-9.22-18-9.66-2.63,0-5.27,0-7.47-1.32-2.63-2.2-1.32-5.27-2.2-7.9-.88-2.63-2.2-4.83-4.39-7.03-4.39-3.51-10.1-4.83-15.37-5.71-9.22-1.32-18.44-2.2-27.66-2.63-9.22-.44-18.88,0-28.1,0-9.22.44-18.44.88-27.66,1.76-4.39.44-9.22.88-13.61,1.76-4.39.88-7.9,1.32-11.42,3.95-5.27,4.39-5.27,8.78-5.27,14.93,0,7.03-.44,13.61-.44,20.64,0,7.9,0,15.81.44,24.15.44,14.05.88,28.54,6.59,42.16,3.51,8.34,8.78,16.25,15.37,22.4,8.78,8.34,19.76,11.42,32.06,12.3,13.61,1.32,27.66.44,41.28-3.07,5.27-1.32,10.98-3.07,15.81-6.15,2.63-1.32,4.83-3.07,7.03-5.27,3.07-2.63,9.66-1.32,13.61-1.76,3.95-.44,7.9-1.32,11.86-2.2,2.63-.44,2.63-.88,3.95.44,1.32,1.32,2.2,2.63,2.2,4.39,0,1.32-.44,2.63-.44,3.95-.88,4.39-.44,8.78,2.63,12.3,1.76,2.2,3.95,4.39,4.83,7.03.44,1.32,0,2.63,0,3.51-.88,7.9,2.2,15.81,8.34,21.08,6.15,6.15,14.93,9.66,23.71,10.54,4.83.88,10.1.88,15.37.44,4.83,0,9.66-2.63,14.93-1.32,5.27,1.32,10.54,3.51,15.81,5.27,7.47,2.63,15.37,4.39,23.27,5.71,3.95.44,8.34.88,12.3.88,1.76,0,3.51,0,5.27.44,1.76.44,3.07,2.2,4.39,1.76.44,0,1.32-.88,1.76-1.32.44-2.2-4.39-4.83-8.34-6.15-6.15-2.2-12.73-2.2-15.81-1.76-2.2,0-4.83.44-7.03-.44-3.51-.88-5.71-4.39-6.59-7.9-.44-2.63-.88-5.27-.44-7.47,0-1.32.44-5.27-1.76-4.83-.88,0-1.32,1.32-1.32,1.76-1.32,5.27.44,10.1,0,14.93-1.76-1.32-4.83-1.76-7.03-2.2-2.63-.88-5.71-1.32-8.34-2.2.44-1.76,2.63-3.07,3.95-3.95,1.76-1.32,3.07-3.07,3.95-4.83,2.63-4.39,2.63-12.3-1.76-15.37-1.76-.88-3.07-1.32-4.83-1.32,1.32-.88,2.63-2.2,3.95-3.51,4.39-4.39,9.66-10.1,7.9-17.13-2.2-7.03-7.47-8.34-14.05-8.78.88-1.32,1.76-2.63,2.63-3.95,3.07-6.59,2.63-14.05-3.07-19.32-3.95-3.51-8.34-1.32-12.73,0-7.9,1.76-16.25,1.76-23.71-.88-2.63-.88-6.15-3.51-9.22-1.76-3.95,1.76,2.63,4.39,4.39,5.27,3.95,2.2,7.9,3.51,12.3,3.95,5.71.88,11.42.88,17.13-.88,2.63-.88,5.71-3.51,8.34-2.2,1.32.44,1.76,1.76,2.63,3.07,1.76,3.51,1.76,7.47.44,10.98-.44,1.32-1.32,2.63-2.2,3.51-1.32.88-2.63.88-3.95.44-1.76-.88-2.2-3.51-1.76-5.27.44-1.76,7.03-7.03,1.76-7.9-1.32,0-2.63.44-3.51,1.32-2.63,2.2-3.95,5.27-3.95,8.34,0,1.32.44,2.63.88,3.95.44,1.32,2.63,2.63,2.63,3.95.88,3.07-3.07,3.07-5.27,3.07-4.83.44-9.66.44-14.93,0-10.1-.44-20.2-2.2-29.86-5.27-1.76-.44-6.15-1.32-7.03-3.07-1.76-2.63,2.63-4.39,4.39-6.15,4.39-3.95,7.47-9.22,9.22-14.93.88-2.63.44-5.27,2.63-6.15,1.76-.88,4.83,0,6.59-.44,3.51-.44,7.03-1.76,10.1-3.51,8.34-3.95,17.57-13.17,17.13-23.27,0-1.32-.44-2.63-.88-3.95-.88-3.07-3.51-5.71-6.59-7.03-4.39-1.76-8.78,0-13.17,1.76-4.39,1.76-8.34,2.63-12.73,1.76-1.32-.44-3.07-.88-3.51-2.2-.44-.88.44-2.2.44-3.07.44-2.2.44-4.39,0-6.15-.44-.88-.44-1.32-.88-2.2,0-.88,0-1.32.44-2.2.88-.88,4.39,0,5.71,0,3.07,0,6.15.44,9.66.44,6.15.44,13.17-.44,19.32.88-.44,1.32-1.76,2.2-2.63,3.07-.88.88-1.76,3.07-.44,3.51.88.44,2.2,0,3.07-.88,3.07-2.2,6.15-4.39,9.66-6.59-3.07,5.27-4.39,11.42-4.39,17.57,0,.88,0,1.76.88,2.2.44.44,1.76,0,2.2-.44.44-.44.88-1.32.88-2.2.88-2.63.88-5.27,1.76-7.9.88-2.63,2.2-5.27,4.83-6.15,3.51-1.32,7.03.88,10.1,2.63,0,.44,5.27,3.07,5.71,3.51,2.2,1.32,4.39,2.63,6.59,3.95,2.2,1.32,4.39,3.51,7.03,3.95.44,0,1.32,0,1.76-.44.44-.44.44-.88,0-1.32-.44-.44-.88-.88-1.32-1.32-2.63-2.2-5.71-4.39-8.78-6.59-1.32-1.32-3.07-1.76-4.39-3.07-1.76-1.32-3.07-3.07-5.27-4.39-2.2-1.32-4.39-2.2-7.03-3.07-2.2-.88-4.39-2.2-6.15-3.95-4.39-3.07-8.34-6.59-11.86-10.54-7.47-7.47-13.61-16.25-18.44-25.47-1.76-3.51-3.51-7.03-3.51-10.98,0-1.32,0-4.39.88-5.27,1.76-.88,3.07,1.76,3.51,2.63,2.63,4.83,6.59,8.34,11.42,10.54,1.32.44,2.63,1.32,4.39,1.32,1.32,0,3.07-.44,3.95-1.76-.44.88,11.86,8.78,13.17,9.22,4.83,2.63,10.1,4.83,14.93,6.59v.44c0,.88-1.76,3.07-2.2,3.95-.88,1.76-.88,3.51-1.32,5.27,0,.44,0,1.32.44,1.76.44.44.88.88,1.32.88.88,0,.88-.88,1.32-1.32.88-1.76,1.32-3.51,2.2-5.27.44-1.32,1.76-3.07,1.76-3.95,0,.44,2.63.88,3.07.88-.44,1.76-1.32,3.51-1.76,5.27-.44.44-.44,1.32,0,1.76.44.44,1.32.44,1.76,0,.44-.44.88-.88,1.32-1.32.88-1.32,1.76-3.51,3.07-3.95,1.76-.44,3.07,1.32,4.83,1.76,4.39,1.32,9.22,2.63,13.61,4.39,8.78,3.95,16.69,9.22,22.83,16.25,7.21,8.24,6.25,8.6,18,23.27,15.13,18.89,21.49,22.21,27.07,23.51,5.33,1.24,10.06.67,13.17,0Zm-121.48,70.03c2.2.88,3.07,3.95,2.2,6.15-1.32,3.51-4.83,6.15-7.47,8.34,0,0-.44-3.51,0-3.95.44-1.76,1.32-2.63,2.2-3.95.88-1.32,3.51-5.71,0-6.15-3.07-.44-7.03,6.15-7.47,8.78-.44,1.76,0,3.51.44,5.27.44,1.32,1.76,2.63,1.32,3.95-.44,2.2-3.95,2.2-5.71,2.2-6.15.44-12.3.44-18.44-.44-7.03-.88-14.05-2.63-19.76-7.03-4.39-3.51-7.9-8.34-8.78-14.05-.88-7.03,3.95-3.51,7.9-2.2,5.27,1.76,10.98,3.07,16.69,3.95,10.98,1.76,22.4,1.32,33.37-.88.88,0,2.2-.44,3.51,0Zm-67.63-30.3c10.98,4.39,19.76,5.71,25.91,5.71,15.81.44,28.1-2.2,28.1-2.2,6.15-1.32,15.37-3.51,18,.44.88.88.88,2.63.88,2.63.44,2.63-.88,5.27-2.2,7.47-1.76,2.2-6.15,6.15-7.47.88-.44-1.32,0-2.63.88-3.95s1.76-2.2,2.63-3.07c1.32-1.76,2.63-5.71-1.32-4.83-4.39.88-7.47,7.9-7.03,11.86.44,3.07,2.2,5.71,4.83,7.03-.44.88-1.32,1.32-2.2,2.2-4.39,4.39-10.54,4.39-16.69,4.39-5.71,0-11.42-.88-16.69-2.2-8.34-2.63-17.13-3.51-24.15-9.66-2.63-2.63-4.83-5.71-5.71-9.22-.44-1.76-.44-3.51-.44-5.71,0-2.63.44-1.76,2.63-1.76Zm-24.15-97.05c0-1.76.44-3.51.88-4.83.44-1.32,1.32-1.32,2.63-1.32,2.63,0,5.27.44,7.47,1.32,3.95,1.32,7.47,3.07,10.54,5.71,5.71,4.83,8.78,12.3,9.22,19.76,0,1.76,0,3.51-1.32,4.39-1.32,1.32-3.07.88-4.83.44-1.76-.44-3.51-.88-4.83-2.2-1.76-1.76-1.76-4.39-2.2-6.59-1.32-3.95-4.39-7.03-8.34-8.34-2.2-.44-4.83-.44-6.59-1.76-1.76-1.32-2.63-3.51-2.63-5.71,0,0,0-.44,0-.88Zm-4.83,62.8c.44-1.76.88-3.51.88-5.27.44-2.63.88-4.83,1.76-7.47,2.2,3.07,6.15,5.27,10.1,6.59,4.39,1.32,7.03,1.32,7.47,3.07.44,2.2-3.51,5.27-7.47,7.03-2.2.88-4.83,1.32-7.47,1.32-.88,0-5.27,0-5.71-1.32v-1.32c0-.88.44-1.76.44-2.63Zm-120.32-86.51c1.76-1.76,4.83-2.63,7.47-3.07,7.9-1.32,15.81-1.76,23.71-2.2,3.51,0,7.03-.88,10.98-.88s7.9,0,11.86-.44c18.44-.44,36.89,0,55.33,3.51,4.39.88,11.86,5.27,9.22,10.98-2.2,4.39-8.78,5.71-12.73,6.59-6.59,1.32-13.61,1.76-20.2,2.2-6.59.44-13.61.44-20.2.44-11.86,0-24.15-.44-36.01-1.32-5.71-.44-11.42-.44-17.13-1.32-3.07-.44-5.71-1.32-8.34-3.07-2.2-1.32-4.83-2.63-5.71-5.27-.44-1.76,0-3.95.88-5.27q.44-.44.88-.88Zm101.44,115.49c-5.27,4.39-12.3,6.59-18.88,7.9-20.64,3.95-46.55,7.03-64.11-6.59-17.57-13.17-18.88-34.69-20.2-54.89-.44-7.9-.88-15.37-.88-23.27v-10.1c0-3.51-.44-7.47.44-10.54,2.2.88,4.39,2.2,6.59,3.07,5.71,2.2,12.73,2.2,18.88,2.63,13.61.88,27.23,1.76,40.84,1.76s27.23-.88,40.4-3.07c5.27-.88,11.42-2.2,15.81-5.71,0,18-.88,36.01-3.51,53.57-1.32,8.34-2.2,18.88-5.27,28.54-2.2,5.71-5.27,11.86-10.1,16.69Zm54.89-28.54c-1.76,4.39-6.59,15.37-16.69,19.76-7.03,3.07-15.81,3.51-23.27,4.39-.88,0-1.76,0-2.63-.44-.44-.88-.44-1.76,0-2.63,1.32-2.63,1.76-5.27,3.07-7.9,1.32-2.63,1.32-2.2,3.95-2.2,4.83,1.32,9.66.88,14.49-.88,3.95-1.76,7.03-4.39,9.66-7.9.44-.88.88-1.76.88-2.63.44-.44.44-1.32.88-1.76,3.51.44,6.59,1.32,9.66,2.2Zm3.51-30.74c2.63.44,4.83.44,7.47.44,3.95,0,8.34-.44,12.3-1.32,3.51-.88,7.03-3.51,10.54-.88,2.2,1.76,3.07,4.83,2.2,7.47-.88,2.63-5.27,14.05-8.78,7.03-.88-1.76-.44-3.95.44-5.71.88-1.76,2.2-3.07,3.51-4.39.44-.44.88-.88.88-1.76s-.88-1.32-1.32-1.32-1.32.44-2.2.44c-2.63,1.32-4.39,3.51-5.27,6.59-.88,2.63-.88,5.71,0,8.34.88,2.63,2.63,3.07,4.39,4.83,0,0-4.83,3.07-5.27,3.07-2.2.88-4.39,1.76-6.59,2.2-4.83.88-9.66,1.76-14.93,1.32-7.9-.44-16.69-2.2-23.71-6.15-10.98-6.15-9.22-16.69-7.47-27.67.88-4.39,3.51-11.42,9.22-9.66,1.76.44,3.51,2.63,3.95,4.39.44,2.2-.44,4.39.44,6.15.88,1.32,2.2,2.2,3.95,3.07,4.83,1.76,10.54,3.07,16.25,3.51Zm34.25-67.63c-.44,0-.88-.44-1.76-.88-3.51-2.2-7.03-4.83-9.66-7.9,1.76.44,4.39,2.2,6.15,3.51,2.2,1.76,4.39,3.51,6.59,5.27h-1.32Z"/><path class="cls-1" d="m130.15,243.19h0c.44.44.44,0,0,0,.44,0,0,0,0,0"/><path class="cls-1" d="m129.27,242.75q0,.44,0,0h0q.44,0,0,0"/><path class="cls-2" d="m155.18,409.62c1.76,0,3.51-1.76,3.51-3.51s-1.76-3.51-3.51-3.51-3.51,1.76-3.51,3.51,1.32,3.51,3.51,3.51"/><path class="cls-2" d="m330.83,411.81c0,.44.44.88.44.88.88,1.32,2.2,1.76,3.95,1.32,1.32-.44,2.63-1.32,3.51-2.2,1.32-1.32,3.07-3.95,1.76-6.15-1.32-2.63-5.27-1.76-7.03-.44-1.32.88-2.2,2.63-2.63,4.39-.44.88-.44,1.32,0,2.2Z"/></g></g></svg>