<?xml version="1.0" encoding="UTF-8"?><svg id="Layer_1" xmlns="http://www.w3.org/2000/svg" viewBox="0 0 600 116"><defs><style>.cls-1{stroke:#fff;stroke-miterlimit:10;stroke-width:.5px;}.cls-1,.cls-2,.cls-3{fill:#fff;}.cls-2{fill-rule:evenodd;}.cls-2,.cls-3{stroke-width:0px;}</style></defs><g id="Cerebra_Coffee_-_outlined"><path class="cls-3" d="m176,81.7c-3.33,0-6.41-.56-9.25-1.7-2.84-1.13-5.3-2.72-7.39-4.77-2.09-2.05-3.71-4.45-4.86-7.2-1.15-2.75-1.73-5.77-1.73-9.06s.58-6.3,1.73-9.06,2.78-5.15,4.9-7.2c2.11-2.05,4.58-3.64,7.39-4.77,2.82-1.13,5.89-1.7,9.22-1.7,3.16,0,6.11.51,8.86,1.54,2.75,1.02,5.11,2.58,7.07,4.67l-2.05,2.11c-1.92-1.88-4.04-3.23-6.37-4.06-2.33-.83-4.79-1.25-7.39-1.25-2.86,0-5.51.49-7.97,1.47-2.45.98-4.59,2.37-6.4,4.16-1.81,1.79-3.22,3.88-4.22,6.27-1,2.39-1.5,4.99-1.5,7.81s.5,5.42,1.5,7.81c1,2.39,2.41,4.48,4.22,6.27,1.81,1.79,3.95,3.18,6.4,4.16,2.45.98,5.11,1.47,7.97,1.47,2.6,0,5.07-.42,7.39-1.25,2.33-.83,4.45-2.21,6.37-4.13l2.05,2.11c-1.96,2.09-4.32,3.66-7.07,4.7-2.75,1.05-5.71,1.57-8.86,1.57Z"/><path class="cls-3" d="m194.63,64.68c0-9.98,6.72-16.96,16-16.96s15.93,6.85,15.93,16.83v.9h-15.17v-2.5h12.1c-.45-7.3-5.7-12.42-12.86-12.42s-12.86,5.7-12.86,13.69v.58c0,2.82,1.86,13.89,14.14,13.95l-.06,2.88c-10.18,0-17.21-6.98-17.21-16.96Z"/><path class="cls-3" d="m232.9,81.38v-33.41h3.07v9.15l-.32-1.02c.94-2.69,2.52-4.76,4.74-6.21,2.22-1.45,4.99-2.18,8.32-2.18v3.14c-.13,0-.26-.01-.38-.03-.13-.02-.26-.03-.38-.03-3.71,0-6.61,1.16-8.7,3.49-2.09,2.33-3.14,5.56-3.14,9.7v17.41h-3.2Z"/><path class="cls-3" d="m250.88,64.68c0-9.98,6.72-16.96,16-16.96s15.93,6.85,15.93,16.83v.9h-15.17v-2.5h12.1c-.45-7.3-5.7-12.42-12.86-12.42s-12.86,5.7-12.86,13.69v.58c0,2.82,1.86,13.89,14.14,13.95l-.06,2.88c-10.18,0-17.21-6.98-17.21-16.96Z"/><path class="cls-3" d="m289.15,81.38v-47.49h3.2v24.9l-.64,5.82.51,5.82v10.94h-3.07Zm16.77.26c-2.94,0-5.6-.68-7.97-2.05-2.37-1.37-4.25-3.33-5.63-5.89-1.39-2.56-2.08-5.57-2.08-9.02s.69-6.57,2.08-9.09c1.39-2.52,3.26-4.46,5.63-5.82,2.37-1.36,5.02-2.05,7.97-2.05,3.16,0,5.98.71,8.48,2.14,2.5,1.43,4.46,3.41,5.89,5.95,1.43,2.54,2.14,5.49,2.14,8.86s-.71,6.27-2.14,8.83c-1.43,2.56-3.39,4.56-5.89,5.98-2.5,1.43-5.32,2.14-8.48,2.14Zm-.19-2.88c2.56,0,4.86-.59,6.91-1.76,2.05-1.17,3.66-2.83,4.83-4.96,1.17-2.13,1.76-4.59,1.76-7.36s-.59-5.28-1.76-7.39c-1.17-2.11-2.78-3.75-4.83-4.93-2.05-1.17-4.35-1.76-6.91-1.76s-4.85.59-6.88,1.76c-2.03,1.17-3.63,2.82-4.8,4.93-1.17,2.11-1.76,4.58-1.76,7.39s.59,5.23,1.76,7.36c1.17,2.13,2.77,3.79,4.8,4.96,2.03,1.17,4.32,1.76,6.88,1.76Z"/><path class="cls-3" d="m328.77,81.38v-33.41h3.07v9.15l-.32-1.02c.94-2.69,2.52-4.76,4.74-6.21,2.22-1.45,4.99-2.18,8.32-2.18v3.14c-.13,0-.26-.01-.38-.03-.13-.02-.26-.03-.38-.03-3.71,0-6.61,1.16-8.7,3.49-2.09,2.33-3.14,5.56-3.14,9.7v17.41h-3.2Z"/><path class="cls-3" d="m363.27,81.64c-3.11,0-5.92-.71-8.42-2.14-2.5-1.43-4.47-3.42-5.92-5.98-1.45-2.56-2.18-5.5-2.18-8.83s.72-6.32,2.18-8.86c1.45-2.54,3.42-4.52,5.92-5.95,2.5-1.43,5.3-2.14,8.42-2.14,2.94,0,5.6.68,7.97,2.05,2.37,1.37,4.24,3.31,5.63,5.82,1.39,2.52,2.08,5.55,2.08,9.09s-.68,6.46-2.05,9.02-3.23,4.52-5.6,5.89c-2.37,1.37-5.05,2.05-8.03,2.05Zm.19-2.88c2.56,0,4.85-.59,6.88-1.76,2.03-1.17,3.63-2.83,4.8-4.96,1.17-2.13,1.76-4.59,1.76-7.36s-.59-5.28-1.76-7.39c-1.17-2.11-2.77-3.75-4.8-4.93-2.03-1.17-4.32-1.76-6.88-1.76s-4.85.59-6.88,1.76c-2.03,1.17-3.63,2.82-4.8,4.93-1.17,2.11-1.76,4.58-1.76,7.39s.59,5.23,1.76,7.36c1.17,2.13,2.77,3.79,4.8,4.96,2.03,1.17,4.32,1.76,6.88,1.76Zm13.5,2.62v-10.94l.58-5.82-.64-5.82v-10.82h3.2v33.41h-3.14Z"/><path class="cls-3" d="m429.06,81.7c-3.33,0-6.41-.56-9.25-1.7-2.84-1.13-5.3-2.72-7.39-4.77-2.09-2.05-3.71-4.45-4.86-7.2-1.15-2.75-1.73-5.77-1.73-9.06s.58-6.3,1.73-9.06,2.78-5.15,4.9-7.2c2.11-2.05,4.58-3.64,7.39-4.77,2.82-1.13,5.89-1.7,9.22-1.7,3.16,0,6.11.51,8.86,1.54s5.11,2.58,7.07,4.67l-2.05,2.11c-1.92-1.88-4.04-3.23-6.37-4.06-2.33-.83-4.79-1.25-7.39-1.25-2.86,0-5.51.49-7.97,1.47-2.45.98-4.59,2.37-6.4,4.16s-3.22,3.88-4.22,6.27c-1,2.39-1.5,4.99-1.5,7.81s.5,5.42,1.5,7.81c1,2.39,2.41,4.48,4.22,6.27s3.95,3.18,6.4,4.16c2.45.98,5.11,1.47,7.97,1.47,2.6,0,5.07-.42,7.39-1.25,2.32-.83,4.45-2.21,6.37-4.13l2.05,2.11c-1.96,2.09-4.32,3.66-7.07,4.7-2.75,1.05-5.71,1.57-8.86,1.57Z"/><path class="cls-3" d="m464.7,81.64c-3.2,0-6.05-.73-8.54-2.18-2.5-1.45-4.48-3.46-5.95-6.02-1.47-2.56-2.21-5.48-2.21-8.77s.74-6.26,2.21-8.8c1.47-2.54,3.46-4.53,5.95-5.98,2.5-1.45,5.34-2.18,8.54-2.18s6.06.73,8.58,2.18c2.52,1.45,4.5,3.45,5.95,5.98,1.45,2.54,2.18,5.47,2.18,8.8s-.73,6.21-2.18,8.77c-1.45,2.56-3.44,4.57-5.95,6.02-2.52,1.45-5.38,2.18-8.58,2.18Zm0-2.88c2.56,0,4.86-.59,6.91-1.76,2.05-1.17,3.65-2.83,4.8-4.96,1.15-2.13,1.73-4.59,1.73-7.36s-.58-5.28-1.73-7.39c-1.15-2.11-2.75-3.75-4.8-4.93-2.05-1.17-4.35-1.76-6.91-1.76s-4.85.59-6.88,1.76c-2.03,1.17-3.63,2.82-4.8,4.93-1.17,2.11-1.76,4.58-1.76,7.39s.59,5.23,1.76,7.36c1.17,2.13,2.77,3.79,4.8,4.96,2.03,1.17,4.32,1.76,6.88,1.76Z"/><path class="cls-3" d="m482.56,50.73v-2.75h19.97v2.75h-19.97Zm6.14,30.66v-38.53c0-2.77.8-5,2.4-6.69,1.6-1.69,3.89-2.53,6.88-2.53,1.24,0,2.45.18,3.65.54,1.19.36,2.18.91,2.94,1.63l-1.28,2.43c-.64-.64-1.41-1.11-2.3-1.41-.9-.3-1.86-.45-2.88-.45-2.05,0-3.61.57-4.67,1.7-1.07,1.13-1.6,2.81-1.6,5.02v5.63l.06,1.54v31.1h-3.2Z"/><path class="cls-3" d="m500.29,50.73v-2.75h19.97v2.75h-19.97Zm6.14,30.66v-38.53c0-2.77.8-5,2.4-6.69,1.6-1.69,3.89-2.53,6.88-2.53,1.24,0,2.45.18,3.65.54,1.19.36,2.18.91,2.94,1.63l-1.28,2.43c-.64-.64-1.41-1.11-2.3-1.41-.9-.3-1.86-.45-2.88-.45-2.05,0-3.61.57-4.67,1.7-1.07,1.13-1.6,2.81-1.6,5.02v5.63l.06,1.54v31.1h-3.2Z"/><path class="cls-3" d="m519.87,64.68c0-9.98,6.72-16.96,16-16.96s15.93,6.85,15.93,16.83v.9h-15.17v-2.5h12.1c-.45-7.3-5.7-12.42-12.86-12.42s-12.86,5.7-12.86,13.69v.58c0,2.82,1.86,13.89,14.14,13.95l-.06,2.88c-10.18,0-17.21-6.98-17.21-16.96Z"/><path class="cls-1" d="m554.81,64.68c0-9.98,6.72-16.96,16-16.96s15.93,6.85,15.93,16.83v.9h-15.17v-2.5h12.1c-.45-7.3-5.7-12.42-12.86-12.42s-12.86,5.7-12.86,13.69v.58c0,2.82,1.86,13.89,14.14,13.95l-.06,2.88c-10.18,0-17.21-6.98-17.21-16.96Z"/></g><g id="Layer_1-2"><g id="Grün_-_0b1b13"><path class="cls-3" d="m90.15,83.32c-.47-.47-.83-1.07-1.18-1.54-.47-.59-.83-1.07-1.3-1.66-.83-1.07-1.66-2.25-2.37-3.44-.95-1.66-1.54-3.55-2.13-5.45-.24-.95-.59-1.9-.83-2.73-.24-.83-.59-1.9-1.07-2.73-.36-.59-1.3-1.18-1.3-.12.12,2.84,1.42,5.57,2.49,8.06.71,1.78,1.54,3.55,2.61,5.21.59.95,1.42,1.78,2.25,2.61l1.18,1.18c.36.36.71.83,1.3,1.07.12.12.24.12.47,0,0,0,0-.36-.12-.47"/><path class="cls-3" d="m26.18,52.52c6.87,0,13.63-.12,20.5-.12.83,0,1.66,0,2.37-.36.95-.47,2.01-1.54.71-2.25-1.18-.71-2.73-.83-4.15-.95-2.37-.12-4.74-.36-6.99-.59-5.09-.59-10.19-.36-15.17,0h-.24c-.59,0-1.3.12-1.9.36-.95.36-1.9,1.3-1.9,2.37.12.59,3.67.47,5.09.95.59.24,1.3.47,1.66.59"/><path class="cls-3" d="m21.32,21.48c0,.36-.36,1.07-.83,1.07-.95,0-1.3-.83-1.42-1.66,0-.24,0-.59.12-.83.24-.36.59-.47.95-.59.83-.36,1.54-.24,2.01.59,1.07,2.01,0,4.27-.83,6.16-1.3,2.96-1.78,6.16-1.54,9.24.12.95.24,1.9.47,2.73.24.71.47,1.3.83,1.9,0,.12.12.12.24.24s.36,0,.36-.24c.12-.12,0-.36,0-.47-.36-4.27-.59-8.77.95-12.8.47-1.3,1.18-2.49,1.42-3.91s-.12-2.84-.83-4.03c-.36-.47-.71-.95-1.18-1.18s-.95-.24-1.54-.24c-.83.12-1.54.36-2.13.83-.47.36-.95.83-1.18,1.42s-.24,1.18-.12,1.78c.12.95.59,2.01,1.42,2.49.83.59,2.01.59,2.84,0,.71-.59.83-2.01.12-2.61.12-.12-.12,0-.12.12"/><path class="cls-3" d="m31.03,37.35c-.12-.47-.12-.83-.24-1.3-.12-.47-.24-.95-.36-1.54-.24-1.07-.24-2.13-.36-3.08-.12-2.13.12-4.27.71-6.28.71-2.96,2.13-5.69,2.73-8.65.47-2.37.36-4.74-.24-6.99-.36-1.3-.95-2.61-2.01-3.32-.12-.12-.24-.24-.47-.24-.47,0-.71.47-.71.95s.36.83.59,1.18c1.18,1.9,1.54,4.38,1.3,6.63-.24,2.25-1.07,4.5-1.78,6.63-.71,2.13-1.54,4.38-1.78,6.63-.24,1.78-.12,3.55.24,5.21.12.83.36,1.66.71,2.49.24.83.71,1.42,1.07,2.13.12.24.71,0,.59-.47"/><path class="cls-3" d="m38.97,17.09c.24-.71.59-1.3.71-1.9.12-.71,0-1.42-.12-2.13-.24-.95-.59-2.01-.83-2.96s-.36-2.01,0-2.96,1.18-1.78,2.25-1.78c.47,0,.83.12,1.18.36s.47.71.47,1.07c-.12.36-.47.71-.83.83-.36,0-.71-.12-.95-.12-.47.12-.71.83-.47,1.18.24.47.83.71,1.3.71,1.07,0,2.13-.71,2.49-1.78s0-2.25-.71-3.08c-.83-.83-1.9-1.07-3.08-.95-1.07.12-2.13.83-2.73,1.78-.59.95-.95,2.01-.95,3.08,0,2.61,1.54,4.98,1.42,7.46,0,.24-.12.59,0,.83,0,.24.24.47.36.59.12.12.47,0,.47-.24"/><path class="cls-3" d="m40.04,39.96c.59-.36.83-1.42.95-2.01.24-.83.47-1.78.59-2.73.24-1.78.24-3.67-.24-5.45-.36-1.42-.83-2.84-1.07-4.27-.12-.95-.12-1.78,0-2.73.12-.71.59-1.54,1.07-2.13.47-.59,1.07-1.07,1.9-1.3s1.66.12,2.01.71c.24.36.36.71.36,1.07s-.12.71-.47.95-.83.12-1.18.12-.71,0-.95.36c-.59.71.59,1.42,1.07,1.42.83.12,1.66,0,2.25-.59.95-.71,1.18-2.01.95-3.08-.24-1.07-1.3-2.01-2.37-2.37s-2.37-.24-3.32.36c-1.78.95-2.96,3.08-3.08,5.09-.12,2.25.59,4.38,1.07,6.52.59,2.96.47,6.04-.36,9-.12.24-.12.47-.12.83.36.36.59.47.95.24"/><path class="cls-3" d="m48.09,27.64c-.24.12-.24.36-.36.59-.12.36-.24.59-.36.95-.12.59-.24,1.3-.36,1.9-.12,1.07,0,2.01.24,3.08.24.83.59,1.78.83,2.61s.36,1.78,0,2.73c-.12.24-.12.36-.24.59s0,.47.24.47c.24.12.59-.12.71-.36.71-.95.95-2.13.83-3.32s-.47-2.25-.71-3.44c-.24-1.42-.36-2.84-.36-4.27,0-.24.12-.59,0-.83,0-.24,0-.47-.12-.59.12-.24-.24-.24-.36-.12"/><path class="cls-3" d="m45.84,12.23c-.24.59-.59,1.18-.47,1.78,0,.24.12.59.36.59.24.12.47,0,.59-.12s.24-.36.24-.59c.12-.36.36-1.42-.12-1.54-.12-.36-.47-.36-.59-.12"/><path class="cls-3" d="m25.82,12.47c-.12.59-.24,1.18-.24,1.78s.24,1.18.36,1.66c.12.59,0,1.18,0,1.66,0,.36,0,1.07.59,1.07s.83-.59.95-1.07c.24-.59.12-1.18.12-1.78,0-1.18-.71-2.25-.95-3.44-.12-.36-.83-.36-.83.12"/><path class="cls-3" d="m82.1,30.36c.12-.24-.12-.59-.12-.83-.12-.36-.24-.83-.36-1.18-.36-1.54-.59-3.2-.36-4.74,0-.24.12-.47.12-.83s-.12-.47-.36-.71c-.36-.24-.83,0-1.07.24-.24.36-.36.71-.36,1.07-.12.71-.12,1.42,0,2.13s.47,1.42.47,2.13c-1.18-.95-2.61-1.66-4.03-1.9-.47-.12-.95-.12-1.3.12-.47.24-.71.71-.59,1.07.12.36.47.47.71.59.36.12.71,0,.95,0,.83,0,1.66.36,2.49.71.83.47,1.54.95,2.25,1.54.47.24,1.07,1.3,1.54.59h0Z"/><path class="cls-3" d="m71.2,32.97c-.47-1.18-1.07-2.37-2.13-3.08-1.18-.83-2.73-.95-4.15-.95s-2.73.24-4.03.83c-.71.36-1.42.83-1.9,1.42-.47.47-1.3,1.54-.59,2.13.24.24.59.36.83.47,1.42.47,2.84.83,4.38.95,1.54.12,3.08,0,4.38-.71.47-.24,1.07-.71,1.66-.59.47.12.95.71,1.18,1.18.12.12.12.36.36.47s.36.24.59.12c.24-.12.12-.47,0-.71-.12-.36-.36-.95-.59-1.54Zm-3.44-.12c-.24.12-.59.24-.83.24-.83.24-1.66.47-2.49.47s-1.66,0-2.49-.12c-.47-.12-.83-.24-1.3-.36-.24-.12-1.18-.36-1.18-.59s.83-.83.95-.95c.36-.24.71-.47,1.18-.71,1.66-.83,3.55-1.07,5.33-.59.47.12,2.13.47,2.13,1.07,0,.36-.47,0-.71,0-.36-.12-.59-.12-.95-.24-.71-.12-1.3-.12-2.01.12-.24,0-.47.12-.47.36s.24.36.47.36c.36,0,.71.12,1.07.24.24,0,.83.12,1.07.24.59.24.47.36.24.47Z"/><path class="cls-3" d="m72.62,8.8c-.12-.12-.36-.24-.59-.24-1.07-.12-2.13.12-2.96.71.12-.24.12-.47.12-.83,0-.24,0-.59-.24-.71-.12-.24-.47-.36-.71-.24-.36.12-.47.47-.36.71.12.71,0,1.54-.47,2.13q-.12.12-.12.24v.36c0,.12.12.12.24.12s.24,0,.24-.12c.71-.24,1.42-.71,2.13-.95.47-.12,1.07-.24,1.54-.24.24,0,.59,0,.83-.12.24-.12.47-.36.36-.83.12.12,0,0,0,0Z"/><path class="cls-3" d="m51.89,20.17c1.3,0,1.3-2.01,0-2.01s-1.3,2.01,0,2.01"/><path class="cls-3" d="m51.17,26.1c.47,0,.47-.83,0-.83s-.47.83,0,.83"/><path class="cls-3" d="m10.42,55.24c-.12.59-.12,1.07-.12,1.66-.12.59-.12,1.18-.24,1.9-.12,1.18-.12,2.49,0,3.67.12,1.3.36,2.61.59,3.91.12.24.12.59.36.83s.47.36.83.24c.24-.12.24-.24.36-.47v-.59c-.12-2.61-.36-5.21-.47-7.82,0-.59-.12-1.3-.12-1.9s-.12-1.66-.95-1.54"/><path class="cls-3" d="m12.91,72.9c.59,0,1.07-.47,1.07-1.07s-.47-1.07-1.07-1.07-1.07.47-1.07,1.07.47,1.07,1.07,1.07"/><path class="cls-3" d="m45.72,105.48c-.12-.36-.59-1.07-.71-1.3-.24-.59-.59-1.18-.83-1.78-.95-2.01-1.9-3.91-3.08-5.69-.59-.95-1.3-1.78-2.13-2.49-.71-.59-1.66-1.3-1.18-2.49.36-.83,1.66-.83,2.37-1.07.71-.24,1.42-.47,2.13-.71.59-.12,1.54-.12,2.01-.59.12-.12.24-.47,0-.59s-.47-.12-.71,0c-.83.24-1.54.47-2.37.59-.71.24-1.54.36-2.25.47-1.3.24-2.73.12-4.03,0-2.96-.36-5.81-1.3-8.41-2.73-3.79-2.13-7.11-4.86-10.54-7.58-.24-.24-.71-.47-.95-.24-.24.24-.12.59,0,.95.59,1.66,1.3,3.2,2.25,4.74.47.71,1.07,1.42,1.66,2.01.59.59,1.3,1.07,1.78,1.78,1.3,1.07,2.61,2.01,4.03,2.84.59.36,1.3.71,2.01.95.59.24,1.3.24,1.9.36,1.66.24,3.44,0,5.09-.59,0,.36-.83,1.07-1.07,1.3-.36.47-.71.83-1.07,1.3-.71.95-1.3,1.9-1.78,2.96-.12.24-.12.47,0,.59s.36-.12.47-.24c.59-.83,1.18-1.54,1.9-2.25.36-.36.71-.83,1.07-1.3.47-.59,1.07-1.54,1.78-1.9.12-.12.24-.12.36-.12.59-.12.24.47.24.83-.24.95-.36,1.9-.36,2.96,0,2.01.71,3.91,1.9,5.57,1.07,1.42,2.49,2.61,4.15,3.32.83.36,1.66.59,2.61.71.36,0,1.78.36,1.9-.12q-.12-.36-.12-.47Zm-13.15-13.74c-1.9.36-3.91.24-5.57-.24-2.25-.71-4.27-2.01-6.04-3.55s-4.15-3.55-4.38-6.04c1.18,1.18,2.73,2.13,4.03,3.08,1.42,1.07,2.96,2.01,4.5,2.96,1.42.83,2.96,1.54,4.62,2.13.83.24,1.66.47,2.49.71.71.12,1.66,0,2.37.36-.59.24-1.3.47-2.01.59Zm11.02,13.51c-2.13-.59-4.15-2.01-5.45-3.91-.71-.95-1.18-2.01-1.42-3.08-.24-.95-.71-2.61-.24-3.55.47-1.18,1.9,1.07,2.25,1.42.83.95,1.42,2.01,2.13,3.08,1.3,2.01,2.13,4.27,3.55,6.28-.36-.12-.59-.12-.83-.24Z"/><path class="cls-3" d="m38.26,88.18c.47,0,.95-.47.95-.95s-.47-.95-.95-.95-.95.47-.95.95.36.95.95.95"/><path class="cls-3" d="m74.52,102.28c-.12-.24-.36-.24-.59-.24-3.08-.36-6.04-1.3-8.77-2.61-2.01-.95-3.91-2.37-5.69-3.67-1.78-1.3-3.2-3.08-4.15-4.98-1.3-2.61-1.78-5.57-1.42-8.41-.47,0-.71.47-.83.95-.47,2.37,0,4.38.36,6.63-.59-.36-1.3-.83-1.9-1.18-.12-.12-.24-.12-.36-.12s-.24,0-.36.12c-.12.24.12.36.24.47.59.47,1.3.95,1.9,1.54.24.24,1.3,1.3,1.3,1.54.12.12.36.36.24.59-.12.24-.47.12-.71,0-1.66-.71-3.08-1.07-4.86-1.3-2.37-.24-4.86.12-7.11,1.07,1.66,2.37,4.27,4.15,7.11,4.86,1.78.47,3.67.47,5.45.24,1.42-.12,3.32-.95,4.62-.24.83.36,1.54,1.07,2.25,1.54-1.9.47-3.67.59-5.09,2.01-1.3,1.18-2.13,3.08-1.66,4.86.36,1.3,1.3,2.37,2.49,2.84,1.18.47,2.61.47,3.79-.24,1.07-.59,1.78-1.78,1.9-2.96.12-1.18-.59-2.49-1.78-2.96-1.07-.47-2.61,0-3.2,1.07-.24.47-.36.95-.12,1.42.24.47.71.71,1.18.59s.71-.71.47-1.07c.36-.12.71,0,.95.24s.36.59.36.95c0,1.07-.95,1.9-2.01,2.01-1.07,0-2.01-.59-2.37-1.54s-.24-2.13.24-2.96,1.42-1.54,2.37-1.9c.95-.36,2.01-.47,2.96-.59,1.18,0,2.37.12,3.44.36.83.24,2.73.59,3.2,1.3-1.42.83-2.49,1.9-2.96,3.55-.12.24-.12.47.12.59s.59-.24.71-.47c.59-1.18,1.54-2.13,2.84-2.73,1.18-.59,2.61-.71,3.91-.36.36.12.59.24.95.12.47-.24.71-.59.59-.95Zm-19.08-6.16c-.95.12-1.9.24-2.84.36-1.78.24-3.44,0-5.09-.71-.83-.36-1.66-.71-2.37-1.3-.71-.47-1.42-.95-2.01-1.54,4.62-1.42,10.43,0,14.22,2.84-.71.12-1.3.24-1.9.36Z"/><path class="cls-3" d="m48.69,86.64v-.36q0-.12-.12-.24c-.12-.12-.36-.24-.59-.12-.24,0-.36.24-.47.47,0,.24,0,.47.12.59s.36.24.59.12c.12,0,.24-.12.24-.12,0,0,.24-.24.24-.36"/><path class="cls-3" d="m58.76,93.16c.71,0,.71-1.18,0-1.18s-.71,1.18,0,1.18"/><path class="cls-3" d="m48.81,103.34c.95,0,.95-1.42,0-1.42-.83,0-.83,1.42,0,1.42"/><path class="cls-3" d="m75.11,99.67c.59,0,.59-.95,0-.95-.59-.12-.59.95,0,.95"/><path class="cls-3" d="m57.57,44.93c.59,0,.95-.47.95-.95,0-.59-.47-.95-.95-.95s-.95.47-.95.95c0,.47.47.95.95.95"/><path class="cls-3" d="m63.26,51.33c.83,0,.83-1.3,0-1.3s-.95,1.3,0,1.3"/><path class="cls-3" d="m108.16,50.62c.71,0,.71-1.18,0-1.18s-.83,1.18,0,1.18"/><path class="cls-3" d="m99.04,52.04c-.12-.12-.12-.24-.24-.24-.12-.12-.24-.12-.36-.24-.47-.24-1.07,0-1.3.47-.24.36-.12.83.12,1.18s.71.47,1.18.36c.59-.24.95-.95.59-1.54"/><path class="cls-3" d="m86.13,16.5c.71,0,.71-1.18,0-1.18s-.71,1.18,0,1.18"/><path class="cls-3" d="m71.43,23.02c1.42,0,1.42-2.25,0-2.25s-1.42,2.25,0,2.25"/><path class="cls-3" d="m58.4,111.4c-7.23,0-14.22-1.42-20.85-4.27-6.4-2.73-12.08-6.52-17.06-11.49s-8.77-10.66-11.49-17.06c-2.84-6.63-4.27-13.63-4.27-20.85,0-5.92.95-11.73,2.84-17.18,1.18-3.32,2.61-6.4,4.27-9.48.59-1.07,1.3-2.13,2.01-3.2.36-.47.71-1.07,1.07-1.54.24-.36.59-1.07,1.18-.95.36,0,.59.36.59.71,0,.24,0,.47-.12.59-.24.36-.47.59-.71.95s-.47.71-.71,1.07c-.47.71-.95,1.42-1.3,2.13-.83,1.42-1.66,2.84-2.37,4.27-1.42,2.96-2.61,6.04-3.44,9.12-.83,3.2-1.42,6.4-1.66,9.72-.12,1.18-.12,2.49-.12,3.79,0,28.79,23.34,52.13,52.13,52.13s52.13-23.34,52.13-52.13S87.19,5.6,58.4,5.6c-1.78,0-3.44.12-5.21.24-.83.12-1.66.24-2.61.36-.47.12-.95.12-1.42.24-.47.12-.95.24-1.54.12-.24,0-.47-.12-.71-.36-.12-.24-.12-.59.12-.83.36-.36.83-.36,1.18-.47.47-.12.95-.12,1.42-.24.95-.12,1.9-.24,2.73-.36,1.9-.24,3.67-.36,5.57-.36h.12c7.23,0,14.22,1.42,20.85,4.27,6.4,2.73,12.08,6.52,17.06,11.49,4.98,4.98,8.77,10.66,11.49,17.06,2.84,6.63,4.27,13.63,4.27,20.85s-1.42,14.22-4.27,20.85c-2.73,6.4-6.52,12.08-11.49,17.06-4.98,4.98-10.66,8.77-17.06,11.49-6.16,2.96-13.27,4.38-20.5,4.38"/><path class="cls-3" d="m81.86,12.83c-.12-.12-.36-.24-.47-.24-2.84-1.3-6.28-1.54-9.36-.59-3.08.95-5.69,2.96-7.35,5.69-.83,1.3-1.3,2.73-2.37,3.79-.59.59-1.3,1.18-2.01,1.66-.71.59-1.3,1.3-2.13,1.78.24-.83.12-1.78.24-2.73.36-2.61,1.54-4.86,2.96-6.99.59-.83,1.07-1.66,1.66-2.49.24-.36.59-.71,1.07-.95.59-.24,1.07-.36,1.66-.95.47-.47.71-1.3.47-1.9s-.95-.95-1.54-.95c-.71,0-1.3.47-1.54,1.07-.12.36-.24.71-.24,1.07,0,.24.12.71.12.95,0,.47-.36.83-.59,1.18-.36.47-.59.83-.95,1.3-.24.36-.59.83-.83,1.3,0-1.42-.36-2.84-.71-4.27-.12-.36-.12-.59-.12-.95s.12-.71.24-1.07c.12-.47-.12-.95-.47-1.3-.59-.59-1.54-.71-2.13-.12-.36.24-.59.71-.59,1.18s0,.95.47,1.18c.24.24.59.36.83.47.47.24.83.59,1.07,1.07.36.59.36,1.3.36,1.9,0,.24.12,1.54-.24,3.08-.12.47-.59,2.61-1.18,2.61-.47,0-.83-2.37-.95-2.84-.47-1.18-1.18-2.37-2.01-3.32-1.54-1.78-3.67-2.96-5.92-3.55-.47-.12-1.3-.24-1.66.24-.24.47,0,1.3.12,1.78.59,3.32,2.84,6.28,5.81,7.58,1.07.47,2.25.83,2.84,1.78.47.95.24,1.9.12,2.84-.12.95-.12,1.9-.36,2.84-.47,1.78-1.42,3.44-2.13,5.09-.59,1.54-1.18,3.32-.83,4.98,0,.24.24.47.36.47s.24-.24.24-.36c.59-1.66.95-3.32,1.66-4.98.59-1.42,1.54-2.73,2.49-3.79,1.9-2.49,4.5-4.74,7.46-6.04,2.25-.95,4.5-1.78,6.75-2.61,1.54-.59,3.08-1.07,4.62-1.78,1.54-.71,2.96-1.78,4.38-2.61.47-.24.95-.59.83-1.07.24-.12.12-.36-.12-.47Zm-17.89-3.08h0c.36-.36.83-.71,1.3-.47.47.36.24,1.18-.12,1.42-.12.12-.36.24-.59.36s-.47,0-.59-.12c-.36-.24-.24-.83,0-1.18Zm-4.86-.47c0,.12-.12.12-.24.12-.12.12-.36,0-.47,0-.59-.24-.83-.83-.47-1.42.24-.36.71-.24,1.07-.12.47.24.47.71.24,1.18,0,.12-.12.12-.12.24Zm-3.32,8.65c-.59-.24-1.3-.71-1.78-1.07-.71-.47-1.42-.95-2.13-1.54-1.3-1.18-2.25-2.73-2.37-4.5,0,0,2.01.83,2.25.95.71.47,1.42,1.07,2.01,1.66,1.07,1.07,2.25,2.84,2.37,4.5-.12.12-.24.12-.36,0Zm24.29-4.03h0c-.12-.12-1.42.71-1.66.83-.59.24-1.18.59-1.78.83-1.18.59-2.49,1.18-3.79,1.66-1.18.47-2.49.95-3.67,1.42-.59.24-1.3.47-1.9.71-.47.12-1.42.59-1.9.59.12-.59.83-1.18,1.07-1.78.36-.59.71-1.18,1.3-1.78,1.07-1.18,2.37-2.01,3.79-2.61,2.73-1.07,5.81-.95,8.53.12Z"/><path class="cls-3" d="m106.74,57.02c-.36-1.54-.83-3.08-1.42-4.5-.47-1.18-.83-2.37-1.18-3.55-.24-1.3-.36-2.49-.36-3.91,0-.71-.12-1.54-.24-2.37-.12-1.07-.24-2.25-.59-3.32-.24-1.07-.59-2.13-.95-3.2-.83-2.37-2.01-4.74-3.32-6.87-1.07-1.78-2.49-3.32-4.27-4.62-1.9-1.3-3.79-2.84-5.69-4.03-1.54-.95-3.08-1.78-4.74-2.61-.83-.36-1.66-.83-2.49-1.07-.71-.24-.95.59-.83,1.18,0,.36.24.71.36.95,1.07,2.01,2.49,3.91,4.03,5.57,1.66,1.78,3.55,3.44,5.33,5.09,1.66,1.42,3.08,3.08,4.5,4.74,2.84,3.55,5.21,7.58,6.75,11.85.36.83.83,1.78,1.07,2.73-.47-.24-.83-.71-1.18-.95-.36-.36-.83-.71-1.18-1.07-.71-.71-1.54-1.3-2.13-2.13-.59-.71-1.07-1.42-1.42-2.25-.24-.36-.36-.83-.59-1.18-.12-.36-.12-.71-.36-.95-.12-.24-.47-.36-.71-.12-.71.59.59,2.49.71,3.08q.12.36-.36.36c-.36,0-.83-.12-1.18-.36-.71-.24-1.42-.71-2.13-1.18-1.18-.95-2.01-2.25-2.61-3.55-.36-.71-.83-1.66-.83-2.49s.71-1.3.36-2.25c-.24-.71-.95-1.18-1.66-1.18s-1.42.59-1.66,1.18.12,1.54.71,1.9c.47.24.95.36,1.42.71.24.24.36.47.47.71.36.83.71,1.66,1.07,2.37.24.71.95,1.66.95,2.37-1.3-.24-2.73-1.18-3.91-1.78-1.3-.71-2.49-1.66-3.55-2.61-.36-.36-.71-.59-.83-1.07-.24-.59,0-.83,0-1.42,0-.47-.47-1.07-.83-1.3-.83-.47-2.01-.36-2.61.36s-.59,1.9,0,2.61c.83,1.07,2.25.36,3.32.95.59.36,1.18.83,1.66,1.42,1.3,1.18,2.61,2.13,4.15,3.08.71.47,1.54.83,2.37,1.07.59.24,2.01.47,2.37.95-.36.36-1.54.36-2.01.36-.71,0-1.54,0-2.25.12-.47,0-.95.12-1.3,0-.36-.12-.71-.36-1.07-.59s-.71-.47-1.18-.47c-1.42-.12-1.9,1.9-1.18,2.84.47.59,1.3.83,2.01.59.59-.24,1.07-.83,1.66-1.18s1.42-.47,2.13-.47c1.54-.12,2.96-.24,4.5-.12,3.2.36,6.16,2.49,8.06,4.98,1.07,1.3,1.9,2.84,2.61,4.5.83,2.25,1.42,4.5,1.9,6.87,0,.24.12.36.24.59.12.12.36.36.47.24.24,0,.36-.24.47-.47.12-.24,0-.47,0-.59-.24-1.78-.47-3.2-.83-4.5Zm-18.84-21.68c-.12.12-.24.12-.36.24-.36-.12-.83-.24-.95-.59-.24-.59.36-1.07.83-1.18.71-.12.95.12.95.83,0,.36-.36.47-.47.71Zm-6.75.47c-.36.71-1.07,1.07-1.54.12-.12-.24-.24-.59-.12-.95.12-.47.71-.71,1.18-.59.71.12.71.83.47,1.42Zm4.62,9.83c-.24.47-.83.59-1.18.36-.59-.36-.36-2.01.47-1.78.47.24,1.07.83.71,1.42Zm.59-.95h0Zm15.64-1.3c-1.07-1.9-2.13-3.67-3.08-5.57-3.08-5.45-8.06-9.24-12.32-13.74-1.66-1.66-3.2-3.55-4.38-5.57,4.5,2.49,9.36,4.74,12.91,8.65,2.13,2.13,3.67,4.86,4.86,7.58.59,1.3,1.18,2.73,1.42,4.03.36,1.78.71,3.44.95,5.21,0-.12-.24-.36-.36-.59Z"/><path class="cls-3" d="m17.65,39.84c-.59-1.66-1.07-3.44-1.18-5.21v-1.07c0-.36-.12-.71-.24-.95-.12-.12-.24-.24-.47-.24-.12,0-.24,0-.36.12-.24.12-.36.24-.59.47-.12.24-.36.47-.47.71-.12.24-.12.47-.12.71,0,.47,0,1.07.24,1.54.24.71.47,1.54.95,2.13,0,.12.12.24.12.36s.12.24.12.47c0,.36,0,.59-.24.83s-.95.24-1.3.36c-.47.12-.83.24-1.18.47-.83.36-1.54.95-2.13,1.54-1.18,1.18-2.01,2.84-1.78,4.5.12.71.47,1.54.95,2.13,2.49,2.61,7.11-2.61,3.32-3.44-.36-.12-.59,0-.59.36v.47c0,.24.12.36.12.59,0,.36-.36.71-.71.83s-.71-.12-.95-.47c-.59-.95-.24-2.01.24-2.84.47-.95,1.42-1.54,2.37-2.01,1.07-.59,2.37-1.3,3.55-1.54.24-.24.47-.47.36-.83Z"/><path class="cls-3" d="m54.73,62.11c-.36.24-.36.71-.47,1.07-.12.47,0,.83,0,1.3s.83.47.83,0c0-.36,0-.83.12-1.18s.12-.71,0-1.07c-.12-.24-.36-.12-.47-.12Z"/><path class="cls-3" d="m63.62,68.27c.71,0,.59-.71.59-1.18,0-.71,0-1.54.12-2.37-.12-.59-.83-.83-1.07-.24-.36.95-.71,2.37-.24,3.32.12.24.24.47.59.47Z"/><path class="cls-3" d="m64.44,67.21c.12.24.47.24.59,0,.24-.36.12-.83.12-1.18-.12-.47-.83-.47-.83,0,0,.36-.12.83.12,1.18Z"/><path class="cls-3" d="m68.83,78.35c0-.59.12-1.18.24-1.78.12-.47.36-1.07.12-1.54,0-.12-.12-.12-.24-.12-1.42.12-.95,2.61-.95,3.55.12.47.83.47.83-.12Z"/><path class="cls-3" d="m70.25,77.99v-1.18c0-.36.12-.71,0-.95-.12-.12-.24-.24-.36-.12-.59.47-.36,1.66-.36,2.25,0,.47.71.47.71,0Z"/><path class="cls-3" d="m71.79,85.57c0-.71.12-1.54,0-2.25,0-.12-.12-.36-.24-.47-.12,0-.12-.12-.24-.12-.24,0-.47.12-.47.36-.24.83-.12,1.66,0,2.49.12.71.95.59.95,0Z"/><path class="cls-3" d="m72.98,85.93c0-.59.24-1.66-.24-2.25-.12-.12-.36-.12-.36,0-.47.47-.24,1.54-.24,2.25.12.47.83.47.83,0Z"/><path class="cls-3" d="m70.61,89.84c-.36.71-.24,1.54-.24,2.37.12.36.83.36.83-.12,0-.83,0-1.54-.24-2.25,0-.12-.36-.24-.36,0Z"/><path class="cls-3" d="m71.91,89.72c-.36.71-.36,1.54-.36,2.37.12.47.83.47.83,0,0-.71.24-1.54,0-2.25,0-.24-.36-.24-.47-.12Z"/><path class="cls-3" d="m110.49,69.17c-4.11-1.54-6.6-3.63-8.13-5.28-2.4-2.59-3.05-3.64-5.92-7.82-1.3-1.9-3.2-3.32-5.21-4.38-1.9-1.07-3.79-1.78-5.81-2.49-2.01-.71-3.91-1.54-5.92-2.13-1.9-.59-3.44-1.78-4.98-2.96-1.78-1.54-3.55-3.08-5.69-4.03-.95-.36-2.13-.59-2.96,0-.71.47-1.07,1.18-1.18,2.01-.24,1.9.36,3.79,1.18,5.45.36.71.83,1.3,1.18,2.01.47.71.95,1.42,1.42,2.01.47.71,1.07,1.3,1.66,1.9s1.18,1.07,1.66,1.66c.24.24.47.47.71.71-1.54.36-3.44,0-5.09,0-1.07,0-2.13-.12-3.2-.12-.95,0-1.78.12-2.49-.47-.59-.47-.95-1.18-1.42-1.78-1.18-1.54-2.96-2.49-4.86-2.61-.71,0-1.42,0-2.01-.36-.71-.59-.36-1.42-.59-2.13-.24-.71-.59-1.3-1.18-1.9-1.18-.95-2.73-1.3-4.15-1.54-2.49-.36-4.98-.59-7.46-.71-2.49-.12-5.09,0-7.58,0-2.49.12-4.98.24-7.46.47-1.18.12-2.49.24-3.67.47-1.18.24-2.13.36-3.08,1.07-1.42,1.18-1.42,2.37-1.42,4.03,0,1.9-.12,3.67-.12,5.57,0,2.13,0,4.27.12,6.52.12,3.79.24,7.7,1.78,11.37.95,2.25,2.37,4.38,4.15,6.04,2.37,2.25,5.33,3.08,8.65,3.32,3.67.36,7.46.12,11.14-.83,1.42-.36,2.96-.83,4.27-1.66.71-.36,1.3-.83,1.9-1.42.83-.71,2.61-.36,3.67-.47,1.07-.12,2.13-.36,3.2-.59.71-.12.71-.24,1.07.12.36.36.59.71.59,1.18,0,.36-.12.71-.12,1.07-.24,1.18-.12,2.37.71,3.32.47.59,1.07,1.18,1.3,1.9.12.36,0,.71,0,.95-.24,2.13.59,4.27,2.25,5.69,1.66,1.66,4.03,2.61,6.4,2.84,1.3.24,2.73.24,4.15.12,1.3,0,2.61-.71,4.03-.36,1.42.36,2.84.95,4.27,1.42,2.01.71,4.15,1.18,6.28,1.54,1.07.12,2.25.24,3.32.24.47,0,.95,0,1.42.12.47.12.83.59,1.18.47.12,0,.36-.24.47-.36.12-.59-1.18-1.3-2.25-1.66-1.66-.59-3.44-.59-4.27-.47-.59,0-1.3.12-1.9-.12-.95-.24-1.54-1.18-1.78-2.13-.12-.71-.24-1.42-.12-2.01,0-.36.12-1.42-.47-1.3-.24,0-.36.36-.36.47-.36,1.42.12,2.73,0,4.03-.47-.36-1.3-.47-1.9-.59-.71-.24-1.54-.36-2.25-.59.12-.47.71-.83,1.07-1.07.47-.36.83-.83,1.07-1.3.71-1.18.71-3.32-.47-4.15-.47-.24-.83-.36-1.3-.36.36-.24.71-.59,1.07-.95,1.18-1.18,2.61-2.73,2.13-4.62-.59-1.9-2.01-2.25-3.79-2.37.24-.36.47-.71.71-1.07.83-1.78.71-3.79-.83-5.21-1.07-.95-2.25-.36-3.44,0-2.13.47-4.38.47-6.4-.24-.71-.24-1.66-.95-2.49-.47-1.07.47.71,1.18,1.18,1.42,1.07.59,2.13.95,3.32,1.07,1.54.24,3.08.24,4.62-.24.71-.24,1.54-.95,2.25-.59.36.12.47.47.71.83.47.95.47,2.01.12,2.96-.12.36-.36.71-.59.95-.36.24-.71.24-1.07.12-.47-.24-.59-.95-.47-1.42.12-.47,1.9-1.9.47-2.13-.36,0-.71.12-.95.36-.71.59-1.07,1.42-1.07,2.25,0,.36.12.71.24,1.07.12.36.71.71.71,1.07.24.83-.83.83-1.42.83-1.3.12-2.61.12-4.03,0-2.73-.12-5.45-.59-8.06-1.42-.47-.12-1.66-.36-1.9-.83-.47-.71.71-1.18,1.18-1.66,1.18-1.07,2.01-2.49,2.49-4.03.24-.71.12-1.42.71-1.66.47-.24,1.3,0,1.78-.12.95-.12,1.9-.47,2.73-.95,2.25-1.07,4.74-3.55,4.62-6.28,0-.36-.12-.71-.24-1.07-.24-.83-.95-1.54-1.78-1.9-1.18-.47-2.37,0-3.55.47-1.18.47-2.25.71-3.44.47-.36-.12-.83-.24-.95-.59-.12-.24.12-.59.12-.83.12-.59.12-1.18,0-1.66-.12-.24-.12-.36-.24-.59,0-.24,0-.36.12-.59.24-.24,1.18,0,1.54,0,.83,0,1.66.12,2.61.12,1.66.12,3.55-.12,5.21.24-.12.36-.47.59-.71.83-.24.24-.47.83-.12.95.24.12.59,0,.83-.24.83-.59,1.66-1.18,2.61-1.78-.83,1.42-1.18,3.08-1.18,4.74,0,.24,0,.47.24.59.12.12.47,0,.59-.12s.24-.36.24-.59c.24-.71.24-1.42.47-2.13.24-.71.59-1.42,1.3-1.66.95-.36,1.9.24,2.73.71,0,.12,1.42.83,1.54.95.59.36,1.18.71,1.78,1.07.59.36,1.18.95,1.9,1.07.12,0,.36,0,.47-.12.12-.12.12-.24,0-.36-.12-.12-.24-.24-.36-.36-.71-.59-1.54-1.18-2.37-1.78-.36-.36-.83-.47-1.18-.83-.47-.36-.83-.83-1.42-1.18-.59-.36-1.18-.59-1.9-.83-.59-.24-1.18-.59-1.66-1.07-1.18-.83-2.25-1.78-3.2-2.84-2.01-2.01-3.67-4.38-4.98-6.87-.47-.95-.95-1.9-.95-2.96,0-.36,0-1.18.24-1.42.47-.24.83.47.95.71.71,1.3,1.78,2.25,3.08,2.84.36.12.71.36,1.18.36.36,0,.83-.12,1.07-.47-.12.24,3.2,2.37,3.55,2.49,1.3.71,2.73,1.3,4.03,1.78v.12c0,.24-.47.83-.59,1.07-.24.47-.24.95-.36,1.42,0,.12,0,.36.12.47.12.12.24.24.36.24.24,0,.24-.24.36-.36.24-.47.36-.95.59-1.42.12-.36.47-.83.47-1.07,0,.12.71.24.83.24-.12.47-.36.95-.47,1.42-.12.12-.12.36,0,.47.12.12.36.12.47,0,.12-.12.24-.24.36-.36.24-.36.47-.95.83-1.07.47-.12.83.36,1.3.47,1.18.36,2.49.71,3.67,1.18,2.37,1.07,4.5,2.49,6.16,4.38,1.94,2.22,1.69,2.32,4.86,6.28,4.08,5.1,5.8,5.99,7.3,6.34,1.44.34,2.71.18,3.55,0Zm-32.78,18.89c.59.24.83,1.07.59,1.66-.36.95-1.3,1.66-2.01,2.25,0,0-.12-.95,0-1.07.12-.47.36-.71.59-1.07s.95-1.54,0-1.66c-.83-.12-1.9,1.66-2.01,2.37-.12.47,0,.95.12,1.42.12.36.47.71.36,1.07-.12.59-1.07.59-1.54.59-1.66.12-3.32.12-4.98-.12-1.9-.24-3.79-.71-5.33-1.9-1.18-.95-2.13-2.25-2.37-3.79-.24-1.9,1.07-.95,2.13-.59,1.42.47,2.96.83,4.5,1.07,2.96.47,6.04.36,9-.24.24,0,.59-.12.95,0Zm-18.25-8.18c2.96,1.18,5.33,1.54,6.99,1.54,4.27.12,7.58-.59,7.58-.59,1.66-.36,4.15-.95,4.86.12.24.24.24.71.24.71.12.71-.24,1.42-.59,2.01-.47.59-1.66,1.66-2.01.24-.12-.36,0-.71.24-1.07s.47-.59.71-.83c.36-.47.71-1.54-.36-1.3-1.18.24-2.01,2.13-1.9,3.2.12.83.59,1.54,1.3,1.9-.12.24-.36.36-.59.59-1.18,1.18-2.84,1.18-4.5,1.18-1.54,0-3.08-.24-4.5-.59-2.25-.71-4.62-.95-6.52-2.61-.71-.71-1.3-1.54-1.54-2.49-.12-.47-.12-.95-.12-1.54,0-.71.12-.47.71-.47Zm-6.52-26.18c0-.47.12-.95.24-1.3.12-.36.36-.36.71-.36.71,0,1.42.12,2.01.36,1.07.36,2.01.83,2.84,1.54,1.54,1.3,2.37,3.32,2.49,5.33,0,.47,0,.95-.36,1.18-.36.36-.83.24-1.3.12s-.95-.24-1.3-.59c-.47-.47-.47-1.18-.59-1.78-.36-1.07-1.18-1.9-2.25-2.25-.59-.12-1.3-.12-1.78-.47-.47-.36-.71-.95-.71-1.54,0,0,0-.12,0-.24Zm-1.3,16.94c.12-.47.24-.95.24-1.42.12-.71.24-1.3.47-2.01.59.83,1.66,1.42,2.73,1.78,1.18.36,1.9.36,2.01.83.12.59-.95,1.42-2.01,1.9-.59.24-1.3.36-2.01.36-.24,0-1.42,0-1.54-.36v-.36c0-.24.12-.47.12-.71Zm-32.46-23.34c.47-.47,1.3-.71,2.01-.83,2.13-.36,4.27-.47,6.4-.59.95,0,1.9-.24,2.96-.24s2.13,0,3.2-.12c4.98-.12,9.95,0,14.93.95,1.18.24,3.2,1.42,2.49,2.96-.59,1.18-2.37,1.54-3.44,1.78-1.78.36-3.67.47-5.45.59s-3.67.12-5.45.12c-3.2,0-6.52-.12-9.72-.36-1.54-.12-3.08-.12-4.62-.36-.83-.12-1.54-.36-2.25-.83-.59-.36-1.3-.71-1.54-1.42-.12-.47,0-1.07.24-1.42q.12-.12.24-.24Zm27.37,31.16c-1.42,1.18-3.32,1.78-5.09,2.13-5.57,1.07-12.56,1.9-17.3-1.78-4.74-3.55-5.09-9.36-5.45-14.81-.12-2.13-.24-4.15-.24-6.28v-2.73c0-.95-.12-2.01.12-2.84.59.24,1.18.59,1.78.83,1.54.59,3.44.59,5.09.71,3.67.24,7.35.47,11.02.47s7.35-.24,10.9-.83c1.42-.24,3.08-.59,4.27-1.54,0,4.86-.24,9.72-.95,14.45-.36,2.25-.59,5.09-1.42,7.7-.59,1.54-1.42,3.2-2.73,4.5Zm14.81-7.7c-.47,1.18-1.78,4.15-4.5,5.33-1.9.83-4.27.95-6.28,1.18-.24,0-.47,0-.71-.12-.12-.24-.12-.47,0-.71.36-.71.47-1.42.83-2.13.36-.71.36-.59,1.07-.59,1.3.36,2.61.24,3.91-.24,1.07-.47,1.9-1.18,2.61-2.13.12-.24.24-.47.24-.71.12-.12.12-.36.24-.47.95.12,1.78.36,2.61.59Zm.95-8.29c.71.12,1.3.12,2.01.12,1.07,0,2.25-.12,3.32-.36.95-.24,1.9-.95,2.84-.24.59.47.83,1.3.59,2.01s-1.42,3.79-2.37,1.9c-.24-.47-.12-1.07.12-1.54s.59-.83.95-1.18c.12-.12.24-.24.24-.47s-.24-.36-.36-.36-.36.12-.59.12c-.71.36-1.18.95-1.42,1.78-.24.71-.24,1.54,0,2.25s.71.83,1.18,1.3c0,0-1.3.83-1.42.83-.59.24-1.18.47-1.78.59-1.3.24-2.61.47-4.03.36-2.13-.12-4.5-.59-6.4-1.66-2.96-1.66-2.49-4.5-2.01-7.46.24-1.18.95-3.08,2.49-2.61.47.12.95.71,1.07,1.18.12.59-.12,1.18.12,1.66.24.36.59.59,1.07.83,1.3.47,2.84.83,4.38.95Zm9.24-18.25c-.12,0-.24-.12-.47-.24-.95-.59-1.9-1.3-2.61-2.13.47.12,1.18.59,1.66.95.59.47,1.18.95,1.78,1.42h-.36Z"/><path class="cls-2" d="m25.23,55.83h0c.12.12.12,0,0,0,.12,0,0,0,0,0"/><path class="cls-2" d="m24.99,55.72q0,.12,0,0h0q.12,0,0,0"/><path class="cls-3" d="m31.98,100.74c.47,0,.95-.47.95-.95s-.47-.95-.95-.95-.95.47-.95.95.36.95.95.95"/><path class="cls-3" d="m79.37,101.33c0,.12.12.24.12.24.24.36.59.47,1.07.36.36-.12.71-.36.95-.59.36-.36.83-1.07.47-1.66-.36-.71-1.42-.47-1.9-.12-.36.24-.59.71-.71,1.18-.12.24-.12.36,0,.59Z"/></g></g></svg>