<?xml version="1.0" encoding="UTF-8"?><svg id="Layer_1" xmlns="http://www.w3.org/2000/svg" viewBox="0 0 500 57"><defs><style>.cls-1{stroke:#fff;stroke-miterlimit:10;stroke-width:.5px;}.cls-1,.cls-2{fill:#fff;}.cls-2{stroke-width:0px;}</style></defs><g id="Cerebra_Coffee_-_outlined"><path class="cls-2" d="m58,52.88c-3.33,0-6.41-.56-9.25-1.7-2.84-1.13-5.3-2.72-7.39-4.77-2.09-2.05-3.71-4.45-4.86-7.2-1.15-2.75-1.73-5.77-1.73-9.06s.58-6.3,1.73-9.06,2.78-5.15,4.9-7.2c2.11-2.05,4.58-3.64,7.39-4.77,2.82-1.13,5.89-1.7,9.22-1.7,3.16,0,6.11.51,8.86,1.54,2.75,1.02,5.11,2.58,7.07,4.67l-2.05,2.11c-1.92-1.88-4.04-3.23-6.37-4.06-2.33-.83-4.79-1.25-7.39-1.25-2.86,0-5.51.49-7.97,1.47-2.45.98-4.59,2.37-6.4,4.16-1.81,1.79-3.22,3.88-4.22,6.27-1,2.39-1.5,4.99-1.5,7.81s.5,5.42,1.5,7.81c1,2.39,2.41,4.48,4.22,6.27,1.81,1.79,3.95,3.18,6.4,4.16,2.45.98,5.11,1.47,7.97,1.47,2.6,0,5.07-.42,7.39-1.25,2.33-.83,4.45-2.21,6.37-4.13l2.05,2.11c-1.96,2.09-4.32,3.66-7.07,4.7-2.75,1.05-5.71,1.57-8.86,1.57Z"/><path class="cls-2" d="m76.63,35.85c0-9.98,6.72-16.96,16-16.96s15.93,6.85,15.93,16.83v.9h-15.17v-2.5h12.1c-.45-7.3-5.7-12.42-12.86-12.42s-12.86,5.7-12.86,13.69v.58c0,2.82,1.86,13.89,14.14,13.95l-.06,2.88c-10.18,0-17.21-6.98-17.21-16.96Z"/><path class="cls-2" d="m114.9,52.56V19.15h3.07v9.15l-.32-1.02c.94-2.69,2.52-4.76,4.74-6.21,2.22-1.45,4.99-2.18,8.32-2.18v3.14c-.13,0-.26-.01-.38-.03-.13-.02-.26-.03-.38-.03-3.71,0-6.61,1.16-8.7,3.49-2.09,2.33-3.14,5.56-3.14,9.7v17.41h-3.2Z"/><path class="cls-2" d="m132.88,35.85c0-9.98,6.72-16.96,16-16.96s15.93,6.85,15.93,16.83v.9h-15.17v-2.5h12.1c-.45-7.3-5.7-12.42-12.86-12.42s-12.86,5.7-12.86,13.69v.58c0,2.82,1.86,13.89,14.14,13.95l-.06,2.88c-10.18,0-17.21-6.98-17.21-16.96Z"/><path class="cls-2" d="m171.15,52.56V5.07h3.2v24.9l-.64,5.82.51,5.82v10.94h-3.07Zm16.77.26c-2.94,0-5.6-.68-7.97-2.05-2.37-1.37-4.25-3.33-5.63-5.89-1.39-2.56-2.08-5.57-2.08-9.02s.69-6.57,2.08-9.09c1.39-2.52,3.26-4.46,5.63-5.82,2.37-1.36,5.02-2.05,7.97-2.05,3.16,0,5.98.71,8.48,2.14,2.5,1.43,4.46,3.41,5.89,5.95,1.43,2.54,2.14,5.49,2.14,8.86s-.71,6.27-2.14,8.83c-1.43,2.56-3.39,4.56-5.89,5.98-2.5,1.43-5.32,2.14-8.48,2.14Zm-.19-2.88c2.56,0,4.86-.59,6.91-1.76,2.05-1.17,3.66-2.83,4.83-4.96,1.17-2.13,1.76-4.59,1.76-7.36s-.59-5.28-1.76-7.39c-1.17-2.11-2.78-3.75-4.83-4.93-2.05-1.17-4.35-1.76-6.91-1.76s-4.85.59-6.88,1.76c-2.03,1.17-3.63,2.82-4.8,4.93-1.17,2.11-1.76,4.58-1.76,7.39s.59,5.23,1.76,7.36c1.17,2.13,2.77,3.79,4.8,4.96,2.03,1.17,4.32,1.76,6.88,1.76Z"/><path class="cls-2" d="m210.77,52.56V19.15h3.07v9.15l-.32-1.02c.94-2.69,2.52-4.76,4.74-6.21,2.22-1.45,4.99-2.18,8.32-2.18v3.14c-.13,0-.26-.01-.38-.03-.13-.02-.26-.03-.38-.03-3.71,0-6.61,1.16-8.7,3.49-2.09,2.33-3.14,5.56-3.14,9.7v17.41h-3.2Z"/><path class="cls-2" d="m245.27,52.81c-3.11,0-5.92-.71-8.42-2.14-2.5-1.43-4.47-3.42-5.92-5.98-1.45-2.56-2.18-5.5-2.18-8.83s.72-6.32,2.18-8.86c1.45-2.54,3.42-4.52,5.92-5.95,2.5-1.43,5.3-2.14,8.42-2.14,2.94,0,5.6.68,7.97,2.05,2.37,1.37,4.24,3.31,5.63,5.82,1.39,2.52,2.08,5.55,2.08,9.09s-.68,6.46-2.05,9.02-3.23,4.52-5.6,5.89c-2.37,1.37-5.05,2.05-8.03,2.05Zm.19-2.88c2.56,0,4.85-.59,6.88-1.76,2.03-1.17,3.63-2.83,4.8-4.96,1.17-2.13,1.76-4.59,1.76-7.36s-.59-5.28-1.76-7.39c-1.17-2.11-2.77-3.75-4.8-4.93-2.03-1.17-4.32-1.76-6.88-1.76s-4.85.59-6.88,1.76c-2.03,1.17-3.63,2.82-4.8,4.93-1.17,2.11-1.76,4.58-1.76,7.39s.59,5.23,1.76,7.36c1.17,2.13,2.77,3.79,4.8,4.96,2.03,1.17,4.32,1.76,6.88,1.76Zm13.5,2.62v-10.94l.58-5.82-.64-5.82v-10.82h3.2v33.41h-3.14Z"/><path class="cls-2" d="m311.06,52.88c-3.33,0-6.41-.56-9.25-1.7-2.84-1.13-5.3-2.72-7.39-4.77-2.09-2.05-3.71-4.45-4.86-7.2-1.15-2.75-1.73-5.77-1.73-9.06s.58-6.3,1.73-9.06,2.78-5.15,4.9-7.2c2.11-2.05,4.58-3.64,7.39-4.77,2.82-1.13,5.89-1.7,9.22-1.7,3.16,0,6.11.51,8.86,1.54s5.11,2.58,7.07,4.67l-2.05,2.11c-1.92-1.88-4.04-3.23-6.37-4.06-2.33-.83-4.79-1.25-7.39-1.25-2.86,0-5.51.49-7.97,1.47-2.45.98-4.59,2.37-6.4,4.16s-3.22,3.88-4.22,6.27c-1,2.39-1.5,4.99-1.5,7.81s.5,5.42,1.5,7.81c1,2.39,2.41,4.48,4.22,6.27s3.95,3.18,6.4,4.16c2.45.98,5.11,1.47,7.97,1.47,2.6,0,5.07-.42,7.39-1.25,2.32-.83,4.45-2.21,6.37-4.13l2.05,2.11c-1.96,2.09-4.32,3.66-7.07,4.7-2.75,1.05-5.71,1.57-8.86,1.57Z"/><path class="cls-2" d="m346.7,52.81c-3.2,0-6.05-.73-8.54-2.18-2.5-1.45-4.48-3.46-5.95-6.02-1.47-2.56-2.21-5.48-2.21-8.77s.74-6.26,2.21-8.8c1.47-2.54,3.46-4.53,5.95-5.98,2.5-1.45,5.34-2.18,8.54-2.18s6.06.73,8.58,2.18c2.52,1.45,4.5,3.45,5.95,5.98,1.45,2.54,2.18,5.47,2.18,8.8s-.73,6.21-2.18,8.77c-1.45,2.56-3.44,4.57-5.95,6.02-2.52,1.45-5.38,2.18-8.58,2.18Zm0-2.88c2.56,0,4.86-.59,6.91-1.76,2.05-1.17,3.65-2.83,4.8-4.96,1.15-2.13,1.73-4.59,1.73-7.36s-.58-5.28-1.73-7.39c-1.15-2.11-2.75-3.75-4.8-4.93-2.05-1.17-4.35-1.76-6.91-1.76s-4.85.59-6.88,1.76c-2.03,1.17-3.63,2.82-4.8,4.93-1.17,2.11-1.76,4.58-1.76,7.39s.59,5.23,1.76,7.36c1.17,2.13,2.77,3.79,4.8,4.96,2.03,1.17,4.32,1.76,6.88,1.76Z"/><path class="cls-2" d="m364.56,21.9v-2.75h19.97v2.75h-19.97Zm6.14,30.66V14.03c0-2.77.8-5,2.4-6.69,1.6-1.69,3.89-2.53,6.88-2.53,1.24,0,2.45.18,3.65.54,1.19.36,2.18.91,2.94,1.63l-1.28,2.43c-.64-.64-1.41-1.11-2.3-1.41-.9-.3-1.86-.45-2.88-.45-2.05,0-3.61.57-4.67,1.7-1.07,1.13-1.6,2.81-1.6,5.02v5.63l.06,1.54v31.1h-3.2Z"/><path class="cls-2" d="m382.29,21.9v-2.75h19.97v2.75h-19.97Zm6.14,30.66V14.03c0-2.77.8-5,2.4-6.69,1.6-1.69,3.89-2.53,6.88-2.53,1.24,0,2.45.18,3.65.54,1.19.36,2.18.91,2.94,1.63l-1.28,2.43c-.64-.64-1.41-1.11-2.3-1.41-.9-.3-1.86-.45-2.88-.45-2.05,0-3.61.57-4.67,1.7-1.07,1.13-1.6,2.81-1.6,5.02v5.63l.06,1.54v31.1h-3.2Z"/><path class="cls-2" d="m401.87,35.85c0-9.98,6.72-16.96,16-16.96s15.93,6.85,15.93,16.83v.9h-15.17v-2.5h12.1c-.45-7.3-5.7-12.42-12.86-12.42s-12.86,5.7-12.86,13.69v.58c0,2.82,1.86,13.89,14.14,13.95l-.06,2.88c-10.18,0-17.21-6.98-17.21-16.96Z"/><path class="cls-1" d="m436.81,35.85c0-9.98,6.72-16.96,16-16.96s15.93,6.85,15.93,16.83v.9h-15.17v-2.5h12.1c-.45-7.3-5.7-12.42-12.86-12.42s-12.86,5.7-12.86,13.69v.58c0,2.82,1.86,13.89,14.14,13.95l-.06,2.88c-10.18,0-17.21-6.98-17.21-16.96Z"/></g></svg>