<?xml version="1.0" encoding="UTF-8"?><svg id="Layer_3" xmlns="http://www.w3.org/2000/svg" viewBox="0 0 500 500"><defs><style>.cls-1{fill:#fff;fill-rule:evenodd;stroke-width:0px;}</style></defs><path class="cls-1" d="m268.03,41.2c4.25,0,8.3,1.68,11.31,4.68,3.01,3.01,4.68,7.05,4.68,11.31s-1.68,8.3-4.68,11.31-7.04,4.68-11.28,4.68h-.05c-4.24,0-8.28-1.68-11.28-4.68-3.01-3.01-4.68-7.05-4.68-11.31s1.68-8.3,4.68-11.31c3.01-3.01,7.05-4.68,11.31-4.68h0Zm127.07,231v136.73H104.89v-136.73h290.21Zm-217.57,38.21h144.93v60.32h-144.93v-60.32h0Zm250.57-50.36H71.9v-23.92h356.21v23.92h0ZM90.13,66.63v-18.89h150.29c-1.03,3.01-1.57,6.2-1.57,9.44s.54,6.43,1.57,9.44H90.13Zm-18.23,392.18v-37.73h356.21v37.73H71.9Zm23.24-307.86h309.73l-1.35,5.01c-2.98,11.06-7.17,21.77-12.45,31.93-6.58,12.64-14.84,24.37-24.53,34.82l-1.18,1.27h-230.71l-1.18-1.27c-9.69-10.45-17.95-22.18-24.53-34.82-5.29-10.16-9.48-20.87-12.45-31.93l-1.35-5.01h0Zm172.9-65.61h11.96s0,53.46,0,53.46h-23.92v-53.46h11.96Z"/></svg>