<?xml version="1.0" encoding="UTF-8"?><svg id="Layer_1" xmlns="http://www.w3.org/2000/svg" viewBox="0 0 500 500"><defs><style>.cls-1{fill:#fff;stroke-width:0px;}</style></defs><path class="cls-1" d="m88.28,236.41c.58,4.22,1.36,9,2.32,14.24,1.21,6.57,2.72,13.86,4.54,21.63h257.21c1.82-7.77,3.33-15.06,4.54-21.63.96-5.24,1.73-10.02,2.32-14.24H88.28Zm32.82,208.56h204.52l19.91-18.98H100.4l20.69,18.98h0Zm48.54-219.98c-54.1-49.7,26.35-71.21-2.03-105.7,47.1,38.01-14.53,59.62,2.03,105.7h0Zm112.72-1.35c-50.3-46.21,24.49-66.21-1.88-98.27,43.79,35.34-13.51,55.43,1.88,98.27h0Zm-64.54,0c86.24-79.23-42-113.53,3.23-168.51-75.08,60.6,23.17,95.05-3.23,168.51h0Zm190.4,69.29c-4.85,14.05-16.14,26.73-30.83,36.27-9.03,5.86-19.41,10.59-30.4,13.73.62-1.61,1.22-3.23,1.81-4.85,1.5-4.1,2.94-8.24,4.32-12.41,5.85-2.36,11.39-5.23,16.45-8.52,12.13-7.87,21.32-18,25.09-28.9,1.17-3.37,1.72-6.67,1.72-9.84h.03c0-5.81-2.03-11.12-5.74-15.56-3.97-4.75-9.82-8.59-17.18-11.13-.86-.3-1.74-.58-2.64-.84.35-2.67.64-5.34.88-7.97l.58-6.49c2.02.51,3.97,1.09,5.86,1.75,9.92,3.42,17.94,8.75,23.54,15.46,5.85,7.01,9.06,15.46,9.06,24.79h.03c0,4.62-.83,9.48-2.57,14.51h0Zm-59.9-4.43H99.17c6.74,25.03,16.23,52.52,28.45,75.42,14.49,27.16,32.53,47.43,53.57,47.43h85.1c21.04,0,39.08-20.27,53.57-47.43,12.22-22.9,21.71-50.38,28.45-75.42h0Z"/></svg>