<?xml version="1.0" encoding="UTF-8"?><svg id="Layer_4" xmlns="http://www.w3.org/2000/svg" viewBox="0 0 500 500"><defs><style>.cls-1{fill:#fff;stroke-width:0px;}</style></defs><path class="cls-1" d="m283.29,254.64h28.31l28.67-152.12h-42.65l-14.34,152.12h0ZM218.36,57.77h47.3v-14.28h-47.3v14.28h0Zm-74.62,28.56h196.53v-14.28h-196.53v14.28h0Zm208.42,16.2h57.92v83.77c0,10.96-4.48,20.92-11.7,28.14-7.22,7.22-17.18,11.7-28.14,11.7v-15.51c6.68,0,12.76-2.74,17.17-7.15,4.41-4.41,7.15-10.49,7.15-17.17v-68.26h-42.41v-15.51h0Zm-208.42,353.99h42.65l14.34-152.12h-28.31l-28.67,152.12h0Zm-18-353.99h-35.82l44.84,47.84-9.02-47.84h0Zm78.41,353.99h75.73l-14.34-152.12h-47.06l-14.34,152.12h0Zm93.48,0h42.65l-28.67-152.12h-28.31l14.34,152.12h0Zm3.5-184.13h-118.24v14.28h118.24v-14.28h0Zm-119.82-17.74h19.41l-14.34-152.12h-42.65l28.67,152.12h8.9Zm37.17,0h47.06l14.34-152.12h-75.73l14.34,152.12h0Z"/></svg>